<?xml version="1.0" standalone="no"?>
<!DOCTYPE svg PUBLIC "-//W3C//DTD SVG 1.1//EN" "http://www.w3.org/Graphics/SVG/1.1/DTD/svg11.dtd" >
<svg xmlns="http://www.w3.org/2000/svg">
<metadata>
This is a custom SVG webfont generated by Font Squirrel.
Copyright   : Copyright c Phanlop Thongsuk 19972000 All rights reserved compatible with Microsoft Windows 9598ME2000Windows NT Microsoft Office 972000 and upper
Designer    : Phanlop Thongsuk email pslsmartkscthcom
</metadata>
<defs>
<font id="PSLKittithadaBoldItalic" horiz-adv-x="0" >
<font-face units-per-em="2048" ascent="1638" descent="-410" />
<missing-glyph horiz-adv-x="573" />
<glyph />
<glyph unicode=" "  horiz-adv-x="573" />
<glyph unicode="&#x09;" horiz-adv-x="573" />
<glyph unicode="&#xa0;" horiz-adv-x="573" />
<glyph unicode="!" horiz-adv-x="372" d="M45 86q8 39 41 67.5t72 28.5t61.5 -28.5t13.5 -67.5q-6 -39 -38.5 -65.5t-71.5 -26.5t-61.5 25.5t-16.5 66.5zM135 276l45 429l66 376h141l-65 -376l-109 -429h-78z" />
<glyph unicode="&#x22;" horiz-adv-x="589" d="M188 610l56 471h137l-109 -471h-84zM410 610l59 471h135l-106 -471h-88z" />
<glyph unicode="#" horiz-adv-x="784" d="M14 301l21 115h162l75 221h-145l20 115h166l99 278h108l-98 -278h170l98 278h111l-99 -278h127l-20 -115h-147l-78 -221h141l-20 -115h-162l-109 -301h-104l104 301h-170l-108 -301h-105l103 301h-140zM305 416h172l76 221h-172z" />
<glyph unicode="$" horiz-adv-x="784" d="M53 279l140 30l-3.5 -24.5t-1.5 -16.5q0 -76 46.5 -120t121.5 -44q43 0 81 16.5t68 44.5t51.5 66.5t29.5 81.5q2 12 3 21.5t1 15.5q0 61 -45 105q-29 29 -103 63l-67 33q-86 39 -127 86q-55 57 -55 139v23q2 10 3 16t1 8q8 55 36.5 102.5t71.5 83t97.5 59.5t113.5 32 l23 133h69l-22 -131q154 -20 211 -162l-117 -63q-27 55 -58.5 76.5t-93.5 21.5q-68 0 -128 -41t-72 -111q-2 -4 -2 -24q0 -49 39 -82q27 -25 79 -47l70 -31q100 -39 150 -98q59 -72 59 -164q0 -31 -6 -64q-23 -127 -113 -215t-215 -108l-27 -146h-69l24 140q-59 0 -107 21.5 t-83 60t-54.5 93t-19.5 120.5z" />
<glyph unicode="%" horiz-adv-x="964" d="M86 14l805 1090l57 -35l-805 -1087zM100 813q0 8 1 18.5t3 24.5q18 102 102.5 174t184.5 72q92 0 148.5 -57.5t56.5 -145.5q0 -8 -1 -18.5t-3 -24.5q-18 -102 -105 -172q-84 -72 -182 -72q-86 0 -145.5 57.5t-59.5 143.5zM184 829q0 -57 37 -94t98 -37q33 0 65 12.5 t57.5 34t44 50t24.5 61.5q2 4 2 25q0 57 -39 96t-98 39q-61 0 -120.5 -47t-68.5 -113q-2 -4 -2 -27zM436 184q0 4 1 14.5t3 24.5q18 102 102.5 174t184.5 72q92 0 148.5 -57.5t56.5 -145.5q0 -8 -1 -18t-3 -25q-16 -102 -103 -172q-84 -68 -184 -67q-92 0 -148.5 54 t-56.5 146zM522 199q0 -57 38 -95t97 -38q68 0 122.5 46t66.5 111q2 4 2 15v14q0 57 -37 94t-98 37q-68 0 -122 -45t-67 -115q-2 -4 -2 -24z" />
<glyph unicode="&#x26;" horiz-adv-x="940" d="M47 238q0 27 6 57q16 92 84 166q45 49 150 121l75 51q-37 45 -57 93t-20 99q0 6 1 16.5t3 24.5q18 111 97 174.5t185 63.5q92 0 150.5 -49t58.5 -135q0 -6 -1 -16.5t-3 -24.5q-14 -78 -88 -152q-23 -23 -61.5 -53.5t-91.5 -65.5l172 -270l147 145l68 -88l-154 -153 l145 -242h-161l-86 145q-86 -78 -173 -120.5t-174 -42.5q-117 0 -194.5 69.5t-77.5 186.5zM176 266q0 -70 45 -119t115 -49q68 0 137 45q55 33 129 99l-178 293l-16 -11l-88 -56.5t-52 -37.5q-80 -66 -90 -133q-2 -4 -2 -31zM412 858q0 -29 15 -61l24 -49l30 -43l17 10 q86 63 92 67q51 45 61 99q2 4 2 24q0 43 -27.5 67.5t-74.5 24.5q-49 0 -88 -30.5t-49 -83.5q-2 -5 -2 -25z" />
<glyph unicode="'" horiz-adv-x="364" d="M188 610l56 471h137l-109 -471h-84z" />
<glyph unicode="(" horiz-adv-x="421" d="M72 276q0 45 4 91.5t12 95.5q14 82 43 163t70 162q39 74 91 152t122 162h129q-27 -31 -51 -65l-47 -64q-22 -31 -38 -56.5t-24 -39.5q-59 -94 -100 -198t-62 -220q-18 -109 -18 -199q0 -109 24.5 -212t79.5 -249h-127q-108 227 -108 477z" />
<glyph unicode=")" horiz-adv-x="421" d="M-78 -201q72 100 123 182t86 148q41 80 67.5 162t41.5 168q8 45 12 86t4 88q0 133 -41 278q-8 29 -13 49.5t-9 30.5l-22 55q-11 28 -26 56h131q53 -117 83 -240t30 -239q0 -94 -14 -160q-29 -164 -117 -344q-90 -176 -215 -320h-121z" />
<glyph unicode="*" horiz-adv-x="698" d="M184 848l56 108l153 -59l29 184h110l-34 -184l178 59l14 -108l-180 -53l86 -146l-102 -71l-68 180l-131 -183l-84 72l133 148z" />
<glyph unicode="+" horiz-adv-x="798" d="M55 317l19 103h286l52 287h102l-51 -287h287l-19 -103h-287l-49 -286h-102l49 286h-287z" />
<glyph unicode="," horiz-adv-x="319" d="M0 -131q96 47 137 131q-16 -6 -47 -6q-33 0 -53.5 22.5t-13.5 55.5q6 35 35.5 60.5t68.5 25.5q82 0 82 -86q0 -16 -2 -21q-12 -70 -70 -127q-23 -23 -52.5 -45t-66.5 -43z" />
<glyph unicode="-" horiz-adv-x="456" d="M66 317l18 103h313l-18 -103h-313z" />
<glyph unicode="." horiz-adv-x="319" d="M30 73.5q5 32.5 30.5 59.5t66.5 25q35 0 54.5 -23.5t13.5 -60.5q-6 -35 -35 -57.5t-64 -22.5q-41 -4 -56 21.5t-10 58z" />
<glyph unicode="/" horiz-adv-x="745" d="M-49 -131l823 1376l88 -47l-823 -1374z" />
<glyph unicode="0" horiz-adv-x="798" d="M51 362q0 41 4 86.5t13 92.5q39 229 147 381q129 182 317 182q147 0 220 -115q63 -100 63 -270q0 -41 -4 -86t-12 -92q-41 -231 -148 -381q-129 -178 -317 -178q-150 0 -219 110q-64 100 -64 270zM178 377q0 -123 37 -193q45 -86 139 -86q127 0 217 154q72 121 103 291 q6 37 10 78t4 81q0 123 -35 199q-43 88 -141 88q-129 0 -217 -155q-35 -61 -60.5 -133t-39.5 -158q-17 -94 -17 -166z" />
<glyph unicode="1" horiz-adv-x="798" d="M256 958l92 123h258l-190 -1081h-125l170 958h-205z" />
<glyph unicode="2" horiz-adv-x="798" d="M-4 0l557 580l49 53q20 23 31 37q39 51 49 104q2 4 2 33q0 72 -49 123t-123 51q-39 0 -77 -15.5t-69.5 -42t-55 -62.5t-36.5 -79h-131q47 154 148.5 238t243.5 84q57 0 108 -19.5t88 -55.5t58.5 -85t21.5 -106q0 -18 -1 -32.5t-3 -25.5q-20 -125 -117 -223l-420 -434h422 l-22 -123h-674z" />
<glyph unicode="3" horiz-adv-x="798" d="M49 231q0 29 2 35h129q0 -80 48 -126t122 -46q43 0 83 16.5t72 44t53.5 66.5t29.5 86q2 10 3 22.5t1 26.5q0 78 -49 119t-142 41l21 113q98 0 159.5 40t77.5 132l3.5 21t1.5 16q0 68 -41 108.5t-113 40.5q-68 0 -120 -41t-81 -112h-129q88 270 355 270q117 0 187.5 -61.5 t70.5 -172.5q0 -27 -7 -57q-12 -78 -54 -137.5t-122 -104.5q57 -37 83 -87t26 -117q0 -33 -6 -66q-27 -147 -138 -235q-113 -84 -256 -84q-119 0 -194.5 65t-75.5 184z" />
<glyph unicode="4" horiz-adv-x="798" d="M-25 158l805 968l-151 -854h119l-19 -114h-119l-28 -158h-125l28 158h-510zM205 272h299l80 449z" />
<glyph unicode="5" horiz-adv-x="798" d="M0 168l115 94q14 -74 71.5 -118t128.5 -44q102 0 193 78q88 76 106 184q2 16 3 27.5t1 18.5q0 92 -58 153.5t-150 61.5q-53 0 -110.5 -26t-102.5 -71h-29l98 555h506l-20 -123h-381l-45 -253q41 20 74.5 27t70.5 7q63 0 114.5 -22.5t86.5 -63.5t54 -96t19 -119 q0 -39 -6 -78q-31 -168 -161 -274q-127 -104 -293 -104q-98 0 -176 47t-109 139z" />
<glyph unicode="6" horiz-adv-x="798" d="M37 264q0 29 9 81t56 128q16 29 42 62l61 73l446 496l88 -64l-352 -393q41 14 62.5 19.5t46.5 5.5q55 0 102 -21.5t80 -58.5t51.5 -88t18.5 -111q0 -31 -7 -61q-29 -145 -147 -250q-119 -100 -262 -100q-121 0 -209 77q-86 82 -86 205zM164 287q0 -78 53 -133.5 t133 -55.5q92 0 168 64q78 66 94 155q2 14 3 24.5t1 18.5q0 41 -14 76t-39.5 60.5t-59.5 40t-73 14.5q-86 0 -166 -67.5t-96 -157.5q-2 -14 -3 -24.5t-1 -14.5z" />
<glyph unicode="7" horiz-adv-x="798" d="M0 45l702 916h-542l20 120h756l-850 -1099z" />
<glyph unicode="8" horiz-adv-x="798" d="M55 238q0 29 6 63q14 86 67.5 154.5t141.5 105.5q-98 76 -98 195v22q2 10 3 16.5t1 8.5q20 131 123 215q100 86 231 86q111 0 181.5 -66.5t70.5 -177.5q0 -27 -6 -57q-12 -78 -55 -136.5t-125 -105.5q66 -31 95.5 -82t29.5 -121q0 -18 -1 -32.5t-3 -24.5 q-29 -147 -135 -235q-109 -84 -250 -84q-119 0 -198 68.5t-79 187.5zM184 268q0 -72 47.5 -121t120.5 -49q80 0 152 60q74 61 88 143q2 12 3 21.5t1 13.5q0 74 -49 121t-123 47q-80 0 -152 -60q-70 -57 -86 -143q-2 -4 -2 -33zM299 778q0 -59 43 -110q45 -49 102 -50 q61 0 134 60q68 59 77 125q2 6 2 33q0 68 -41 110.5t-106 42.5q-74 0 -134.5 -54t-74.5 -132q-2 -5 -2 -25z" />
<glyph unicode="9" horiz-adv-x="798" d="M123 690q0 20 1 33.5t3 24.5q27 147 147 251q119 104 265 105q125 0 206 -82q84 -84 84 -207q0 -27 -6 -57q-12 -72 -59 -150q-20 -33 -45 -66.5t-57 -68.5l-443 -491l-86 63l348 387q-27 -8 -58.5 -12t-47.5 -4q-113 0 -182 80q-70 75 -70 194zM250 719q0 -41 15.5 -75 t41 -59.5t60 -40t71.5 -14.5q49 0 93 18.5t78 49.5t57.5 72t31.5 88q2 12 3 21t1 18q0 78 -50 132t-124 54q-94 0 -178 -65q-80 -63 -96 -160q-2 -12 -3 -21.5t-1 -17.5z" />
<glyph unicode=":" horiz-adv-x="319" d="M30 73.5q5 32.5 30.5 59.5t66.5 25q35 0 54.5 -23.5t13.5 -60.5q-6 -35 -35 -57.5t-64 -22.5q-41 -4 -56 21.5t-10 58zM117 581.5q6 34.5 34.5 59.5t63.5 25t55.5 -25t14.5 -59q-6 -35 -35 -59.5t-64 -24.5t-55 24.5t-14 59z" />
<glyph unicode=";" horiz-adv-x="319" d="M0 -131q96 47 137 131q-16 -6 -47 -6q-33 0 -53.5 22.5t-13.5 55.5q6 35 35.5 60.5t68.5 25.5q82 0 82 -86q0 -16 -2 -21q-12 -70 -70 -127q-23 -23 -52.5 -45t-66.5 -43zM117 581.5q6 34.5 34.5 59.5t63.5 25t55.5 -25t14.5 -59q-6 -35 -35 -59.5t-64 -24.5t-55 24.5 t-14 59z" />
<glyph unicode="&#x3c;" horiz-adv-x="778" d="M27 317l18 101l766 297l-25 -133l-569 -215l494 -213l-23 -134z" />
<glyph unicode="=" horiz-adv-x="798" d="M35 195l18 102h676l-18 -102h-676zM78 440l18 103h676l-18 -103h-676z" />
<glyph unicode="&#x3e;" horiz-adv-x="778" d="M-20 20l20 134l573 213l-499 215l24 133l660 -297l-19 -101z" />
<glyph unicode="?" horiz-adv-x="770" d="M131 762q0 141 115 239q113 100 276 101q129 0 205 -70q70 -63 70 -166q0 -8 -1 -19t-3 -26q-18 -102 -164 -229t-160 -203l-16 -94h-136l21 115q14 74 211 252q92 82 106 161q2 2 2 13v10q0 55 -42 94t-119 39q-98 0 -162 -58.5t-64 -162.5l-137 -37q-2 6 -2 41zM248 74 q-4 4 1 23.5t18.5 41t39 38t62.5 16.5q41 0 65.5 -29t16.5 -72q-8 -45 -41 -71.5t-78 -26.5q-37 0 -60.5 21.5t-23.5 58.5z" />
<glyph unicode="@" horiz-adv-x="1126" d="M66 434q0 23 3 49.5t7 57.5q39 236 227.5 399.5t419.5 163.5q100 0 177 -30t136 -95q109 -109 109 -260q0 -33 -6 -70q-33 -188 -142 -303q-61 -66 -123.5 -95.5t-119.5 -29.5q-61 0 -62 88q-55 -45 -103 -66.5t-108 -21.5q-41 0 -76.5 16.5t-62.5 45t-42 67.5t-15 84v25 q2 10 3 16t1 8q25 137 123 240q100 104 227 104q53 0 95 -21.5t81 -76.5l33 86h102l-137 -369l-10 -27q-4 -11 -6 -20q-10 -37 -11 -47q0 -31 27 -30q51 0 117 86q66 94 84 188q8 31 8 86q0 141 -89 224t-237 83q-182 0 -325 -131q-147 -131 -181 -317q-8 -31 -8 -84 q0 -164 106.5 -264.5t274.5 -100.5q92 0 161 16.5t120 53.5l92 -86q-104 -51 -193 -74q-82 -20 -211 -20q-205 0 -335 122q-131 125 -131 330zM397 461q0 -53 32 -91t87 -38q88 0 150 61q49 49 77 139q10 31 11 70q0 115 -123 115q-86 0 -150 -68q-66 -68 -80 -153 q-2 -12 -3 -21.5t-1 -13.5z" />
<glyph unicode="A" horiz-adv-x="956" d="M-80 0l698 1126l300 -1126h-140l-73 270h-482l-166 -270h-137zM301 391h373l-109 440z" />
<glyph unicode="B" horiz-adv-x="722" d="M18 0l191 1081h127q156 0 235 -43q102 -55 103 -184q0 -33 -8.5 -81t-47.5 -107q-37 -57 -75 -76l-4 -19q63 -12 103 -74.5t40 -144.5v-24q-2 -10 -3 -16.5t-1 -8.5q-29 -152 -154 -233q-106 -70 -262 -70h-244zM170 121h98q104 0 176 37q86 47 107 153q2 12 3 21.5 t1 15.5q0 82 -78 119q-68 29 -162 29h-77zM256 602h31q111 0 166 31q74 41 92 149q2 10 3 21.5t1 25.5q0 76 -51.5 104t-143.5 28h-35z" />
<glyph unicode="C" horiz-adv-x="899" d="M55 434q0 27 2 52.5t6 48.5q43 242 236 403q193 166 424 166q72 0 133.5 -17.5t118.5 -56.5l-29 -156q-55 57 -119.5 82t-140.5 25q-174 0 -317 -131q-141 -127 -174 -311q-6 -41 -7 -80q0 -156 95 -256q96 -102 247 -103q150 0 299 113l-26 -160q-150 -72 -291 -71 q-197 0 -328 124q-129 129 -129 328z" />
<glyph unicode="D" horiz-adv-x="903" d="M18 0l191 1081h215q225 0 364.5 -108.5t139.5 -313.5q0 -31 -2 -51t-8 -61q-47 -268 -244 -412q-182 -135 -445 -135h-211zM172 123h45q219 0 365 90q166 104 204 328q4 20 6.5 47.5t2.5 48.5q0 168 -125 250q-115 72 -305 71h-46z" />
<glyph unicode="E" horiz-adv-x="704" d="M27 0l190 1081h565l-20 -123h-432l-56 -303h420l-20 -123h-420l-72 -409h432l-22 -123h-565z" />
<glyph unicode="F" horiz-adv-x="638" d="M27 0l190 1081h508l-20 -123h-377l-56 -305h365l-21 -123h-364l-94 -530h-131z" />
<glyph unicode="G" horiz-adv-x="1064" d="M45 438q0 63 8 99q39 233 228 399q186 168 413 168q258 0 391 -209l-106 -90q-49 82 -128 129t-173 47q-172 0 -318 -127q-141 -123 -176 -311q-6 -41 -6 -78q0 -152 94.5 -258.5t241.5 -106.5q125 0 244 95q123 94 153 227h-270l23 123h415l-8 -43q-39 -223 -205 -373 q-164 -147 -383 -147q-195 0 -317 129q-121 132 -121 327z" />
<glyph unicode="H" horiz-adv-x="917" d="M18 0l191 1081h131l-76 -436h498l76 436h131l-191 -1081h-131l92 518h-497l-92 -518h-132z" />
<glyph unicode="I" horiz-adv-x="301" d="M25 0l190 1081h131l-190 -1081h-131z" />
<glyph unicode="J" horiz-adv-x="481" d="M-88 27l84 112q43 -37 94 -37q100 0 150 105q27 57 49 186l121 688h131l-121 -688q-33 -188 -101 -284q-90 -127 -258 -127q-79 0 -149 45z" />
<glyph unicode="K" horiz-adv-x="813" d="M27 0l190 1081h133l-82 -469l527 469h168l-555 -483l372 -598h-172l-305 504l-63 -55l-80 -449h-133z" />
<glyph unicode="L" horiz-adv-x="514" d="M27 0l190 1081h133l-168 -958h318l-23 -123h-450z" />
<glyph unicode="M" horiz-adv-x="1163" d="M-51 -12l411 1138l209 -852l510 852l13 -1138h-136l11 731l-449 -737l-186 735l-252 -729h-131z" />
<glyph unicode="N" horiz-adv-x="1071" d="M14 -8l203 1141l637 -848l139 794h131l-198 -1120l-637 844l-144 -811h-131z" />
<glyph unicode="O" horiz-adv-x="1132" d="M41 434q0 23 3 49.5t7 57.5q39 233 230 397q193 166 417 166q201 0 330 -133t129 -334v-57q-4 -14 -5 -23.5t-3 -15.5q-43 -238 -231 -402q-188 -158 -418 -157q-201 0 -332 124q-127 127 -127 328zM174 457q0 -154 98.5 -254.5t249.5 -100.5q174 0 317.5 125t178.5 314 q2 20 5 38.5t3 43.5q0 76 -24.5 141t-69.5 112.5t-110.5 74t-145.5 26.5q-176 0 -322 -127q-141 -127 -172 -309q-8 -31 -8 -84z" />
<glyph unicode="P" horiz-adv-x="667" d="M27 0l190 1081h152q203 0 289.5 -59t86.5 -176q0 -31 -4 -50.5t-4 -27.5q-27 -158 -151 -242q-111 -74 -273 -73h-73l-80 -453h-133zM260 573h41q121 0 197 35q96 47 116 164q2 14 3 24.5t1 18.5q0 88 -81 121q-59 25 -172 25h-35z" />
<glyph unicode="Q" horiz-adv-x="1132" d="M41 434q0 23 3 49.5t7 57.5q39 233 230 397q193 166 417 166q201 0 330 -133t129 -334v-57q-4 -14 -5 -23.5t-3 -15.5q-41 -233 -236 -398l138 -161h-162l-74 92q-74 -47 -155.5 -69.5t-159.5 -22.5q-201 0 -332 124q-127 127 -127 328zM174 457q0 -154 98.5 -254.5 t249.5 -100.5q100 0 219 64l-196 242h160l137 -170q72 59 119 143q20 37 34.5 77t22.5 83q2 20 5 38.5t3 43.5q0 76 -24.5 141t-69.5 112.5t-110.5 74t-145.5 26.5q-176 0 -322 -127q-141 -127 -172 -309q-8 -31 -8 -84z" />
<glyph unicode="R" horiz-adv-x="735" d="M27 0l190 1081h160q98 0 156.5 -8t111.5 -43q98 -66 98 -201q0 -27 -6 -57q-18 -113 -100 -196.5t-201 -104.5l246 -471h-160l-229 457h-53l-80 -457h-133zM260 569h41q129 0 195 33q98 47 118 164q2 16 3 27.5t1 15.5q0 88 -81 125q-55 27 -172 27h-35z" />
<glyph unicode="S" horiz-adv-x="727" d="M23 279l139 30q-2 -14 -3 -24.5t-1 -16.5q0 -76 47 -121t121 -45q41 0 78.5 16.5t68.5 46.5t52.5 67.5t29.5 80.5q2 12 3 21.5t1 15.5q0 61 -45 105q-31 31 -102 63l-68 33q-45 23 -75.5 44t-51.5 42q-55 57 -55 141v23q2 10 3 16t1 8q23 125 127 201q109 78 231 78 q174 0 242 -162l-115 -63q-47 98 -153 98q-68 0 -128.5 -41t-72.5 -111q-1 -10 -1 -19q0 -45 32 -81q31 -35 86 -55l69 -31q100 -39 150 -98q59 -72 59 -164q0 -31 -6 -64q-27 -143 -139 -239q-115 -92 -256 -92q-123 0 -195.5 81t-72.5 216z" />
<glyph unicode="T" horiz-adv-x="612" d="M100 958l21 123h629l-21 -123h-250l-170 -958h-129l170 958h-250z" />
<glyph unicode="U" horiz-adv-x="909" d="M72 305v35q0 23 8 57l121 684h131l-113 -639q-8 -61 -9 -82.5t-1 -33.5q0 -102 43 -158q53 -66 160 -66q141 0 221 103q66 84 92 237l113 639h131l-121 -684q-31 -182 -156 -301q-127 -115 -303 -114q-150 0 -233.5 88t-83.5 235z" />
<glyph unicode="V" horiz-adv-x="870" d="M109 1081h143l174 -798l451 798h143l-653 -1134z" />
<glyph unicode="W" horiz-adv-x="1406" d="M102 1079h142l162 -770l432 795l157 -795l428 770h142l-633 -1118l-156 791l-434 -791z" />
<glyph unicode="X" horiz-adv-x="778" d="M-68 0l428 567l-200 514h147l148 -395l297 395h147l-391 -516l217 -565h-145l-170 442l-336 -442h-142z" />
<glyph unicode="Y" horiz-adv-x="776" d="M111 1081h149l178 -463l336 463h152l-449 -608l-84 -473h-131l82 473z" />
<glyph unicode="Z" horiz-adv-x="745" d="M-55 0l698 958h-457l21 123h670l-701 -958h533l-23 -123h-741z" />
<glyph unicode="[" horiz-adv-x="458" d="M-16 -225l237 1368h293l-22 -125h-168l-197 -1118h168l-23 -125h-288z" />
<glyph unicode="\" horiz-adv-x="745" d="M190 1245h117l342 -1245h-117z" />
<glyph unicode="]" horiz-adv-x="458" d="M-16 -225l18 125h170l197 1118h-170l22 125h293l-242 -1368h-288z" />
<glyph unicode="^" horiz-adv-x="784" d="M51 442l391 639h156l166 -639h-129l-133 521l-322 -521h-129z" />
<glyph unicode="_" horiz-adv-x="778" d="M-94 -201l18 103h774l-18 -103h-774z" />
<glyph unicode="`" horiz-adv-x="479" d="M209 987l127 66l131 -238l-66 -39z" />
<glyph unicode="a" horiz-adv-x="751" d="M16 262q0 37 7 78q25 141 129 245.5t241 104.5q127 0 205 -135l20 117h125l-118 -672h-125l18 109q-121 -127 -246 -127t-190.5 75.5t-65.5 204.5zM143 279q0 -82 43 -134.5t125 -52.5q98 0 167 69.5t87 174.5q4 20 4 31v24q0 82 -45 133t-127 51q-94 0 -161.5 -69.5 t-85.5 -169.5q-7 -28 -7 -57z" />
<glyph unicode="b" horiz-adv-x="751" d="M4 0l219 1245h125l-121 -688q127 133 252 133q57 0 104.5 -21.5t80 -58.5t50 -88t17.5 -110q0 -35 -6 -72q-29 -154 -123 -254q-104 -104 -252 -104q-125 0 -203 127l-18 -109h-125zM178 279q0 -82 43 -134.5t125 -52.5q98 0 167 69.5t87 174.5q2 8 3 14t1 15v24 q0 82 -43 134t-129 52q-98 0 -164.5 -69.5t-85.5 -169.5q-2 -14 -3 -31.5t-1 -25.5z" />
<glyph unicode="c" horiz-adv-x="593" d="M14 268q0 31 6 62q27 154 148 256q119 104 272 104q49 0 87 -8t79 -33l-31 -172q-37 51 -75.5 72.5t-93.5 21.5q-88 0 -166 -71q-74 -68 -90 -164q-2 -10 -3.5 -22.5t-1.5 -28.5q0 -86 49.5 -136.5t137.5 -50.5q96 0 192 90l-28 -168q-96 -39 -187 -38q-63 0 -117.5 20.5 t-93.5 58t-61.5 89.5t-22.5 118z" />
<glyph unicode="d" horiz-adv-x="751" d="M16 260q0 39 7 80q25 141 129 245.5t239 104.5q129 0 207 -133l121 688h125l-219 -1245h-125l18 109q-121 -127 -246 -127q-123 0 -189.5 76.5t-66.5 201.5zM143 279q0 -82 43 -134.5t125 -52.5q98 0 167 69.5t87 174.5q4 20 4 31v24q0 82 -45 133t-127 51 q-94 0 -161.5 -69.5t-85.5 -169.5q-7 -28 -7 -57z" />
<glyph unicode="e" horiz-adv-x="659" d="M14 254q0 35 6 76q29 162 128.5 261t254.5 99q129 0 189.5 -70.5t60.5 -193.5v-53q-4 -14 -5 -23.5t-3 -15.5l-4 -21h-496q-2 -6 -2 -37q0 -80 42 -132t118 -52q66 0 114 30t105 99l94 -59q-131 -180 -335 -180q-125 0 -196 74.5t-71 197.5zM168 412h364q0 168 -147 168 q-68 0 -127 -45t-90 -123z" />
<glyph unicode="f" horiz-adv-x="360" d="M39 0l96 551h-57l22 121h58l57 325q23 121 78 187q68 78 180 78q29 0 84 -17l-22 -129q-16 10 -37 17.5t-43 7.5q-59 0 -90 -66q-18 -41 -31 -117l-51 -286h174l-23 -121h-174l-96 -551h-125z" />
<glyph unicode="g" horiz-adv-x="749" d="M-23 -131q0 14 2.5 30.5t2.5 24.5h120q-2 -6 -2 -39q0 -152 164 -151q109 0 164 71q45 57 66 177l22 124q-123 -125 -246 -124q-123 0 -189.5 76.5t-66.5 201.5q0 39 6 80q25 141 129.5 245.5t239.5 104.5q129 0 207 -133l20 115h125l-116 -660q-35 -186 -113 -280 q-94 -113 -274 -113q-123 0 -192 63.5t-69 186.5zM143 279q0 -82 43 -135.5t123 -53.5q100 0 167 67.5t87 178.5q4 20 4 31v24q0 82 -45 133t-127 51q-94 0 -161.5 -69.5t-86.5 -169.5q-2 -14 -3 -31.5t-1 -25.5z" />
<glyph unicode="h" horiz-adv-x="706" d="M14 0l219 1245h125l-116 -670q49 59 106.5 87t110.5 28q102 0 149 -53q41 -47 41 -137q0 -23 -3 -47.5t-7 -53.5l-70 -399h-125l68 385l7 49q3 20 3 37q0 51 -26.5 77.5t-92.5 26.5q-127 0 -176 -129q-10 -27 -18 -61.5t-16 -79.5l-54 -305h-125z" />
<glyph unicode="i" horiz-adv-x="333" d="M41 0l119 672h125l-119 -672h-125zM190 977q8 37 38 63.5t65 26.5q31 0 51.5 -20.5t20.5 -51.5q0 -16 -3 -18q-6 -37 -34.5 -61.5t-65.5 -24.5t-57 24q-16 19 -16 46q0 7 1 16z" />
<glyph unicode="j" horiz-adv-x="333" d="M-23 -381l183 1053h125l-187 -1053h-121zM190 977q8 37 38 63.5t65 26.5q31 0 51.5 -20.5t20.5 -51.5q0 -16 -3 -18q-6 -37 -34.5 -61.5t-65.5 -24.5t-57 24q-16 19 -16 46q0 7 1 16z" />
<glyph unicode="k" horiz-adv-x="620" d="M25 0l219 1245h125l-146 -829l289 256h164l-326 -279l236 -393h-162l-178 305l-51 -45l-45 -260h-125z" />
<glyph unicode="l" horiz-adv-x="286" d="M20 0l220 1245h125l-220 -1245h-125z" />
<glyph unicode="m" horiz-adv-x="1046" d="M10 0l119 672h125l-16 -90q98 109 192 108q117 0 168 -119q100 119 221 119q94 0 135 -51t41 -139q0 -20 -3 -45t-7 -54l-72 -401h-125l68 381q6 33 6 41q2 6 2 18v23q0 51 -20.5 81.5t-73.5 30.5q-88 0 -137 -83q-33 -49 -51 -162l-58 -330h-125l64 356l8 52.5t4 52.5 q0 51 -20.5 82.5t-71.5 31.5q-88 0 -137 -83q-35 -59 -53 -162l-58 -330h-125z" />
<glyph unicode="n" horiz-adv-x="706" d="M14 0l119 672h125l-16 -94q49 59 104 85.5t113 26.5q102 0 149 -53q41 -47 41 -137q0 -23 -3 -47.5t-7 -53.5l-70 -399h-125l68 385l7 49q3 20 3 37q0 51 -26.5 77.5t-92.5 26.5q-127 0 -176 -129q-10 -25 -18 -59.5t-16 -79.5l-54 -307h-125z" />
<glyph unicode="o" horiz-adv-x="731" d="M10 264q0 33 6 70q27 150 144 254q121 102 264 102q63 0 117.5 -21.5t93.5 -60.5t60.5 -92t21.5 -117q0 -33 -6 -65q-27 -152 -148 -254q-115 -98 -264 -98q-129 0 -209 76.5t-80 205.5zM137 291q0 -80 51.5 -135.5t133.5 -55.5q47 0 90 18.5t78.5 49.5t60 74t35.5 92 q2 14 3 24.5t1 18.5q0 82 -52.5 136t-134.5 54q-94 0 -170 -69q-76 -68 -92 -164q-2 -14 -3 -24.5t-1 -18.5z" />
<glyph unicode="p" horiz-adv-x="751" d="M-59 -381l182 1053h125l-21 -117q123 135 252 135q57 0 104.5 -21.5t80 -58.5t50 -88t17.5 -110q0 -35 -6 -72q-29 -154 -123 -254q-104 -104 -252 -104q-131 0 -200 129l-89 -492h-120zM178 279q0 -82 43 -135.5t125 -53.5q98 0 167 69.5t87 176.5q2 8 3 14t1 15v24 q0 82 -43 134t-129 52q-98 0 -164.5 -69.5t-85.5 -169.5q-2 -14 -3 -31.5t-1 -25.5z" />
<glyph unicode="q" horiz-adv-x="751" d="M16 260q0 39 7 80q25 141 129 245.5t239 104.5q129 0 207 -135l20 117h125l-186 -1053h-125l88 492q-121 -129 -248 -129q-123 0 -189.5 76.5t-66.5 201.5zM143 279q0 -82 43 -135.5t125 -53.5q98 0 167 69.5t87 176.5q4 20 4 31v24q0 82 -45 133t-127 51 q-94 0 -161.5 -69.5t-85.5 -169.5q-7 -28 -7 -57z" />
<glyph unicode="r" horiz-adv-x="468" d="M25 0l118 672h125l-16 -90l12 18q31 43 81 66.5t106 23.5q55 0 98 -31l-78 -118q-27 27 -72 26q-90 0 -139 -78q-16 -27 -29.5 -66.5t-23.5 -92.5l-57 -330h-125z" />
<glyph unicode="s" horiz-adv-x="514" d="M0 127l115 51q33 -86 104 -86q27 -4 55.5 13.5t45 44t14.5 56.5t-37 54l-107 68l-40 26q-18 12 -29 27q-29 35 -29 80q0 4 1 13t3 22q6 41 26.5 76.5t51.5 61t69 41t76 15.5q123 0 158 -117l-106 -53q-31 55 -76 55q-27 0 -51.5 -18t-28.5 -47q-1 -5 -1 -11q0 -39 54 -71 l45 -24l31 -15q57 -27 84 -57q37 -41 37 -99q0 -4 -1 -13t-3 -21q-14 -88 -94 -156q-78 -61 -168 -61q-72 0 -127.5 36.5t-71.5 108.5z" />
<glyph unicode="t" horiz-adv-x="313" d="M31 0l96 551h-68l23 121h68l45 256h127l-46 -256h123l-22 -121h-123l-96 -551h-127z" />
<glyph unicode="u" horiz-adv-x="690" d="M53 197v53q4 12 5 21.5t3 13.5l68 387h125l-66 -373q-8 -31 -8 -80q0 -57 28 -89t93 -32q86 0 133 60q37 43 53 141l66 373h125l-68 -387q-25 -141 -106.5 -222t-222.5 -81q-117 0 -172.5 55.5t-55.5 159.5z" />
<glyph unicode="v" horiz-adv-x="598" d="M27 672h143l111 -416l262 416h143l-455 -690z" />
<glyph unicode="w" horiz-adv-x="978" d="M25 670h141l115 -422l274 461l109 -461l264 422h141l-451 -688l-114 446l-273 -446z" />
<glyph unicode="x" horiz-adv-x="659" d="M-86 0l350 365l-180 307h147l117 -217l205 217h154l-293 -305l213 -367h-144l-168 272l-256 -272h-145z" />
<glyph unicode="y" horiz-adv-x="653" d="M-111 -381l342 498l-202 555h145l148 -422l276 422h141l-710 -1053h-140z" />
<glyph unicode="z" horiz-adv-x="667" d="M-63 0l532 551h-367l23 121h608l-540 -551h425l-20 -121h-661z" />
<glyph unicode="{" horiz-adv-x="444" d="M68 406l18 104q111 51 139 215l45 260q16 94 52 137q43 53 124 54h86l-22 -121h-55q-35 0 -45.5 -32t-14.5 -56l-47 -265q-16 -94 -65 -163q-16 -27 -38 -46.5t-44 -35.5q25 -25 46 -68t21 -106q0 -33 -6 -72l-47 -262q-2 -10 -3 -16.5t-1 -8.5q-2 -6 -2 -22 q0 -39 37 -39h55l-22 -121h-86q-63 0 -89 27.5t-26 85.5q0 16 3 39.5t5 37.5l45 256q6 39 6 74q1 101 -69 144z" />
<glyph unicode="|" horiz-adv-x="772" d="M326 0v1245h120v-1245h-120z" />
<glyph unicode="}" horiz-adv-x="444" d="M-47 -258l22 121h52q35 0 45 29.5t14 56.5l47 262q16 98 66 166q16 23 37.5 43t44.5 37q-27 25 -43 59q-25 51 -25 117q0 29 6 69l47 265q6 27 6 49q0 39 -36 39h-56l23 121h86q63 0 88.5 -28t25.5 -85q0 -47 -8 -78l-45 -260q-6 -41 -6 -74q0 -100 72 -141l-19 -104 q-59 -27 -93 -79.5t-48 -138.5l-45 -256q-16 -94 -51 -137q-43 -53 -125 -53h-82z" />
<glyph unicode="~" horiz-adv-x="784" d="M33 324q61 76 110 118q72 59 131 60q37 0 72 -14.5t88 -59.5l53 -48q27 -24 50 -24q53 0 141 125l80 -75q-74 -102 -137 -142q-51 -33 -105 -33q-35 0 -76 23l-30 20q-18 12 -41 31l-61 49q-30 25 -50 25q-61 0 -149 -119z" />
<glyph unicode="&#xa4;" horiz-adv-x="839" d="M8 164l148 145q-61 82 -62 193q0 115 62 188l-148 150l76 71l145 -145q78 59 193 59q55 0 105.5 -16t82.5 -43l150 145l71 -71l-145 -150q59 -78 59 -188q0 -115 -59 -193l145 -145l-71 -76l-150 148q-31 -25 -83 -43.5t-105 -18.5q-111 0 -193 62l-145 -148zM197 502 q0 -94 63 -164q63 -68 162 -68q92 0 158 68q63 63 63 164q0 45 -16.5 87t-46 72.5t-69.5 49t-89 18.5q-96 0 -160 -67q-65 -72 -65 -160z" />
<glyph unicode="&#xa9;" horiz-adv-x="1146" d="M35 444v39q0 8 2 22.5t6 35.5q41 231 231 391q193 162 431 162q211 0 342 -131q135 -129 135 -326q0 -61 -8 -96q-41 -231 -234 -391q-195 -158 -430 -158q-205 0 -342 127q-133 128 -133 325zM127 457q0 -166 112.5 -272.5t286.5 -106.5q193 0 357 133q166 137 198 330 q6 39 6 80q0 168 -112 274q-115 109 -287 109q-197 0 -358 -136q-162 -131 -195 -327q-8 -31 -8 -84zM297 477q0 29 6 60q25 135 133 231q106 94 248 94q125 0 207 -82l-17 -123q-55 63 -103 90t-103 27q-100 0 -176 -69q-78 -72 -97 -168q-2 -14 -3 -24.5t-1 -16.5 q0 -82 54.5 -140.5t136.5 -58.5q59 0 118.5 29.5t143.5 105.5l-27 -129q-119 -94 -250 -94q-123 0 -196.5 75.5t-73.5 192.5z" />
<glyph unicode="&#xab;" horiz-adv-x="706" d="M49 457l316 344l67 -58l-258 -286l162 -275l-88 -55zM315 457l320 346l63 -62l-258 -284l162 -273l-86 -57z" />
<glyph unicode="&#xac;" horiz-adv-x="798" d="M61 317v82h676v-268h-84v186h-592z" />
<glyph unicode="&#xad;" horiz-adv-x="798" d="M55 317l19 103h676l-19 -103h-676z" />
<glyph unicode="&#xae;" horiz-adv-x="1146" d="M35 444v39q0 8 2 22.5t6 35.5q41 231 231 391q193 162 431 162q211 0 342 -131q135 -129 135 -326q0 -61 -8 -96q-41 -231 -234 -391q-195 -158 -430 -158q-205 0 -342 127q-133 128 -133 325zM127 457q0 -166 112.5 -272.5t286.5 -106.5q193 0 357 133q166 137 198 330 q6 39 6 80q0 168 -112 274q-115 109 -287 109q-197 0 -358 -136q-162 -131 -195 -327q-8 -31 -8 -84zM334 225l110 621h267q88 0 140 -27.5t52 -99.5q0 -4 -1 -13.5t-3 -21.5q-14 -86 -66.5 -126t-130.5 -46l107 -287h-104l-111 287h-119l-51 -287h-90zM492 602h98h51 q90 0 124 17.5t40 54.5q10 53 -23.5 68.5t-105.5 15.5h-158z" />
<glyph unicode="&#xb0;" horiz-adv-x="540" d="M66 713q0 -43 16 -80t44 -64.5t63.5 -43t76.5 -15.5q43 0 80 15.5t64.5 43t44 64.5t16.5 80t-16.5 79.5t-44 64.5t-64.5 43t-80 15t-78.5 -16t-63.5 -44t-43 -64.5t-15 -77.5zM121 713q0 61 42 103t103 42t105.5 -43t44.5 -102t-45 -105q-43 -43 -105 -43 q-59 0 -102 44.5t-43 103.5z" />
<glyph unicode="&#xb6;" horiz-adv-x="727" d="M-6 858q0 -162 110 -235q94 -61 263 -62v-813h55v1364h145v-1364h62v1364h102v41h-389q-158 0 -248 -66q-100 -75 -100 -229z" />
<glyph unicode="&#xb7;" horiz-adv-x="337" d="M96 449q0 -33 20.5 -53.5t53.5 -20.5q29 0 50.5 21.5t21.5 52.5q0 29 -20.5 50t-51.5 21q-33 0 -53.5 -20t-20.5 -51z" />
<glyph unicode="&#x2219;" horiz-adv-x="337" d="M96 449q0 -33 20.5 -53.5t53.5 -20.5q29 0 50.5 21.5t21.5 52.5q0 29 -20.5 50t-51.5 21q-33 0 -53.5 -20t-20.5 -51z" />
<glyph unicode="&#xbb;" horiz-adv-x="706" d="M49 182l256 275l-155 284l86 62l194 -346l-313 -330zM315 182l258 275l-157 284l86 62l194 -346l-313 -330z" />
<glyph unicode="&#xd7;" horiz-adv-x="798" d="M76 152l256 217l-180 217l86 71l178 -217l256 217l57 -71l-254 -217l178 -217l-84 -72l-178 217l-256 -217z" />
<glyph unicode="&#xf7;" horiz-adv-x="798" d="M55 317l19 103h676l-19 -103h-676zM270 109q6 35 36 60.5t67 25.5q35 0 55.5 -25t13.5 -61q-6 -37 -34.5 -61.5t-65.5 -24.5t-57.5 24.5t-14.5 61.5zM362 629q6 35 36 60.5t67 25.5q35 0 55.5 -24.5t14.5 -61.5t-35 -61.5t-66 -24.5t-57.5 24.5t-14.5 61.5z" />
<glyph unicode="&#xe00;" horiz-adv-x="204" />
<glyph unicode="&#xe01;" horiz-adv-x="819" d="M0 0l115 655q156 178 381 179q135 0 219 -59.5t84 -170.5v-22q-2 -10 -3 -16.5t-1 -8.5l-99 -557h-123l97 541q2 6 2 32q0 70 -54.5 108t-142.5 38q-147 0 -242 -94l-110 -625h-123z" />
<glyph unicode="&#xe02;" horiz-adv-x="757" d="M31 260q0 29 6 64q18 102 88 184q59 74 145 123l-77 137l112 63l121 -200q-123 -80 -187.5 -150.5t-78.5 -156.5q-2 -16 -3 -27.5t-1 -20.5q0 -80 47 -129t133 -49t148.5 51.5t76.5 126.5l96 543h123l-96 -543q-23 -127 -125 -208q-102 -78 -242 -78q-129 0 -207.5 73.5 t-78.5 196.5z" />
<glyph unicode="&#xe03;" horiz-adv-x="757" d="M29 256q0 31 6 61q18 100 88 177q59 68 164 122l8 52l-70 -54l-11 16q-5 7 -9 11q-53 63 -121 104l86 84q33 -14 56.5 -34.5t35.5 -38.5l80 63h104l-45 -248q-92 -43 -159 -102q-68 -66 -84 -152q-2 -16 -3 -27t-1 -18q0 -80 48 -127t134 -47t148.5 51.5t76.5 126.5 l96 543h123l-96 -543q-23 -127 -125 -208q-102 -78 -242 -78q-131 0 -209.5 71.5t-78.5 194.5z" />
<glyph unicode="&#xe04;" horiz-adv-x="819" d="M0 0l98 553q20 119 138 201q119 80 260 80q125 0 215 -68q88 -63 88 -172q0 -6 -1 -16.5t-3 -24.5l-99 -553h-123l99 553q2 4 2 25q0 66 -56.5 103.5t-142.5 37.5q-45 0 -88 -12.5t-78 -34t-58.5 -52t-29.5 -67.5l-14 -80h258l-21 -115h-258l-63 -358h-123z" />
<glyph unicode="&#xe05;" horiz-adv-x="860" d="M0 0l100 567q18 109 105 187q88 80 213 80l82 -95l114 95q111 0 169.5 -61.5t58.5 -156.5v-24q-2 -10 -3 -16.5t-1 -8.5l-101 -567h-123l101 567q2 4 2 33q0 43 -19.5 76t-56.5 43l-170 -144l-121 144q-49 -12 -83 -54t-44 -98l-16 -94h278l-20 -115h-279l-63 -358h-123z " />
<glyph unicode="&#xe06;" horiz-adv-x="829" d="M10 0l82 463q8 45 107 117q49 35 53 63l4 25l-78 -54q-10 14 -17 25.5t-16 19.5q-43 51 -100 89l94 81q55 -27 78 -69l88 59h103l-35 -188q-6 -35 -54 -76q-102 -80 -108 -117l-29 -157q-2 -2 -2 -13v-10q0 -35 17.5 -63.5t47 -50t68.5 -34t82 -12.5q92 0 156.5 44 t79.5 120l98 557h123l-98 -557q-23 -123 -129 -199q-109 -74 -248 -73q-66 0 -127.5 18.5t-106.5 54.5l-10 -63h-123z" />
<glyph unicode="&#xe07;" horiz-adv-x="774" d="M55 662l127 36l64 -589q154 0 257 80.5t130 228.5q6 37 6 69q0 113 -82 171.5t-256 58.5l18 112q446 0 447 -313q0 -20 -3 -45t-7 -53q-35 -199 -176.5 -308.5t-364.5 -109.5h-33q-14 0 -30.5 1t-24.5 1z" />
<glyph unicode="&#xe08;" horiz-adv-x="802" d="M37 670q104 88 201.5 126t216.5 38q162 0 251 -87.5t89 -234.5q0 -55 -9 -86q-35 -193 -196 -311q-164 -117 -397 -117l-25 405h-90l20 115h189l24 -412q131 0 229.5 92.5t123.5 227.5q6 31 6 59q0 104 -64.5 169t-175.5 65q-158 0 -307 -125z" />
<glyph unicode="&#xe09;" horiz-adv-x="808" d="M10 352l21 115h184l-35 -201q-2 -4 -2 -30q0 -61 45 -98.5t117 -37.5q88 0 172 54q86 53 100 129l47 262q2 4 3 26q0 63 -58.5 105.5t-138.5 42.5q-86 0 -162 -37t-113 -111h-122q49 123 168 191q119 70 249 69q63 0 118.5 -17t96.5 -48t63.5 -75t22.5 -99v-23 q-2 -10 -3 -16t-1 -8l-96 -545h-123l15 82q-23 -20 -49.5 -36.5t-55.5 -27.5q-78 -27 -160 -26q-123 0 -192.5 57t-69.5 162q0 27 6 55l15 86h-62z" />
<glyph unicode="&#xe0a;" horiz-adv-x="755" d="M6 35l139 784h123l-125 -700q20 -6 62.5 -13.5t83.5 -7.5q123 0 208 62.5t101 163.5q2 14 3 24t1 19q0 186 -272 231l311 231l92 -55l-174 -135q82 -39 125 -100.5t43 -149.5q0 -33 -6 -65q-27 -147 -146.5 -239.5t-306.5 -92.5q-49 0 -96 4t-92 14q-31 7 -74 25z" />
<glyph unicode="&#xe0b;" horiz-adv-x="786" d="M37 35l78 440q8 45 69 94q63 49 70 82l4 21l-80 -54l-7 13.5t-7 9.5q-39 57 -117 107l92 81q33 -20 51.5 -37.5t26.5 -31.5l88 59h103l-33 -176q-8 -41 -72 -94q-61 -53 -67 -86l-62 -344q20 -6 62.5 -13.5t82.5 -7.5q125 0 208 60.5t102 165.5q2 16 3 28.5t1 20.5 q0 178 -260 227l299 229l92 -55l-174 -135q82 -39 125 -100.5t43 -149.5q0 -33 -6 -65q-27 -147 -147 -239.5t-306 -92.5q-49 0 -96 4t-92 14q-31 7 -74 25z" />
<glyph unicode="&#xe0c;" horiz-adv-x="1351" d="M0 0l115 655q156 178 381 179q135 0 219 -59.5t84 -170.5v-22q-2 -10 -3 -16.5t-1 -8.5l-50 -274q-2 -4 -2 -25q0 -68 58.5 -113t138.5 -45q86 0 142.5 44t70.5 122l98 553h123l-98 -553q-25 -125 -120 -200.5t-226 -75.5q-63 0 -122.5 24.5t-96.5 67.5l-15 -82h-123 l95 539q2 12 3 21t1 13q0 70 -54.5 108t-142.5 38q-150 0 -242 -96l-90 -510h123l-20 -113h-246z" />
<glyph unicode="&#xe0d;" horiz-adv-x="1351" d="M0 0l115 655q156 178 381 179q135 0 219 -59.5t84 -170.5v-22q-2 -10 -3 -16.5t-1 -8.5l-21 -117q-2 -4 -2 -26q0 -61 49 -91t127 -30q43 0 83 12t73 34.5t55.5 54.5t28.5 69l63 356h123l-98 -553q-23 -125 -137 -200q-113 -76 -254 -76q-98 0 -174 31.5t-125 105.5 l102 78q39 -53 96.5 -79t124.5 -26q92 0 151.5 40t80.5 108q-12 -12 -37 -24.5t-54.5 -23t-62.5 -16.5t-59 -6q-129 0 -205 56.5t-76 156.5q0 16 1 27.5t3 21.5l17 99q2 12 3 21t1 13q0 70 -54.5 108t-142.5 38q-150 0 -242 -96l-90 -510h123l-20 -113h-246z" />
<glyph unicode="&#xe0e;" horiz-adv-x="839" d="M-115 -324l21 117h276l228 141l151 -120l127 721q2 12 3 21t1 15q0 70 -54 108t-142 38q-147 0 -244 -96l-109 -621h-200l20 117h78l94 536q78 92 174.5 136.5t206.5 44.5q135 0 218 -60.5t83 -171.5q0 -16 -1 -28.5t-3 -22.5l-154 -875h-122l-152 129l-197 -129h-303z " />
<glyph unicode="&#xe0f;" horiz-adv-x="839" d="M-115 -324l21 115h170l172 131l90 -115l133 115l90 -98l127 715q2 12 3 21t1 13q0 70 -54 108t-142 38q-150 0 -242 -96l-111 -623h-200l20 115h78l94 540q156 178 381 179q135 0 219 -59.5t84 -170.5v-24q-2 -10 -3 -16.5t-1 -8.5l-156 -879h-122l-91 101l-133 -111 l-92 113l-129 -103h-207z" />
<glyph unicode="&#xe10;" horiz-adv-x="792" d="M-115 -324l21 115h166l166 125l92 -109l131 109l88 -90l16 100l-22 41h153l-51 -291h-123l-84 99l-133 -109l-94 111l-125 -101h-201zM25 662q104 88 201.5 125.5t215.5 37.5q102 0 176 -37l111 103l90 -68l-110 -102q74 -86 73 -215v-53q-4 -12 -5 -21.5t-3 -13.5 q-35 -190 -196 -309q-164 -117 -396 -117l-26 416h-88l18 104h188l27 -412q129 0 227 93q98 94 123 225q6 33 6 63q0 104 -64.5 167t-174.5 63q-158 0 -307 -125z" />
<glyph unicode="&#xe11;" horiz-adv-x="839" d="M20 0l82 467q10 47 56 84q104 86 106 100l4 21l-78 -49q-4 8 -9 13l-9 9q-57 63 -117 103l95 81q27 -16 49 -36.5t30 -30.5l86 57h103l-33 -180q-6 -31 -106 -113q-49 -39 -56 -77l-33 -187l412 563q106 0 164.5 -50t58.5 -136v-23q-2 -10 -3 -16t-1 -8l-104 -592h-123 l104 594q2 4 2 27q0 74 -53 90l-516 -711h-111z" />
<glyph unicode="&#xe12;" horiz-adv-x="1396" d="M27 276q0 53 12 119q31 166 147 293q121 127 246 146l86 -101l111 92q104 0 160.5 -57t56.5 -152q0 -27 -6 -57l-49 -276q-2 -4 -3 -25q0 -68 58.5 -113t138.5 -45q86 0 142.5 44t70.5 122l98 553h123l-98 -553q-25 -125 -120 -200.5t-226 -75.5q-63 0 -122.5 24.5 t-96.5 67.5l-15 -82h-123l99 559q2 12 3 21.5t1 15.5q0 94 -66 117l-161 -138l-123 134q-59 -31 -117 -111q-72 -96 -92 -203q-4 -29 -7 -53.5t-3 -46.5q0 -86 36.5 -138.5t114.5 -52.5q72 0 131 62l78 -74q-86 -98 -227 -98q-129 0 -193.5 73.5t-64.5 208.5z" />
<glyph unicode="&#xe13;" horiz-adv-x="1351" d="M0 0l115 655q156 178 381 179q135 0 219 -59.5t84 -170.5v-22q-2 -10 -3 -16.5t-1 -8.5l-52 -291q-2 -12 -3 -21t-1 -14q0 -61 43 -96t117 -35q86 0 164 54q76 51 92 129l96 536h123l-145 -819h-123l14 82q-53 -43 -119.5 -67.5t-132.5 -24.5q-117 0 -185.5 57t-68.5 162 q0 27 7 57l47 273q2 12 3 21t1 13q0 70 -54.5 108t-142.5 38q-150 0 -242 -96l-90 -510h123l-20 -113h-246z" />
<glyph unicode="&#xe14;" horiz-adv-x="823" d="M25 272q0 55 12 117q35 178 174 311.5t311 133.5q129 0 207 -56q61 -45 88 -121l-117 -657h-122l108 618q-16 41 -49 66q-47 35 -125 35q-131 0 -231 -105q-94 -94 -121 -225q-4 -20 -6 -42.5t-2 -45.5q0 -88 36.5 -142.5t114.5 -54.5q70 0 127 58l72 -76 q-23 -23 -44.5 -39t-41.5 -27q-59 -27 -133 -26q-129 0 -193.5 71.5t-64.5 206.5z" />
<glyph unicode="&#xe15;" horiz-adv-x="864" d="M27 276q0 53 12 119q31 166 147 293q121 127 246 146l86 -101l111 92q104 0 160.5 -57t56.5 -152q0 -27 -6 -57l-99 -559h-123l99 559q2 12 3 21.5t1 15.5q0 94 -66 117l-161 -138l-123 134q-59 -31 -117 -111q-72 -96 -92 -203q-4 -29 -7 -53.5t-3 -46.5 q0 -86 36.5 -138.5t114.5 -52.5q72 0 131 62l78 -74q-86 -98 -227 -98q-129 0 -193.5 73.5t-64.5 208.5z" />
<glyph unicode="&#xe16;" horiz-adv-x="819" d="M0 0l115 655q156 178 381 179q135 0 219 -59.5t84 -170.5v-22q-2 -10 -3 -16.5t-1 -8.5l-99 -557h-123l97 541q2 6 2 32q0 70 -54.5 108t-142.5 38q-147 0 -242 -94l-90 -510h123l-20 -115h-246z" />
<glyph unicode="&#xe17;" horiz-adv-x="819" d="M0 0l145 819h123l-16 -84q57 45 127 72t145 27q123 0 198 -62.5t75 -169.5q0 -16 -1 -29.5t-3 -23.5l-97 -549h-123l95 535q2 12 3 21t1 15q0 68 -46 108t-126 40q-90 0 -180.5 -53.5t-102.5 -128.5l-94 -537h-123z" />
<glyph unicode="&#xe18;" horiz-adv-x="753" d="M0 35l59 364l131 39l-55 -315q31 -10 79 -16.5t83 -6.5q98 0 180 35q92 45 107 123q2 4 2 27q0 63 -64 102q-49 31 -137 43q-78 14 -130 25.5t-79 21.5q-94 37 -94 117q0 23 2 27q14 90 129 149q113 61 238 61q63 0 120.5 -16t99.5 -47t66.5 -75t24.5 -99h-133 q-14 59 -72.5 91t-134.5 32q-66 0 -135 -29q-66 -29 -72 -61q-6 -39 100 -64q31 -6 131 -24q106 -16 179 -64q88 -57 88 -166q0 -16 -1 -28.5t-3 -22.5q-20 -125 -150 -201q-119 -63 -278 -63q-100 0 -201 18l-36 10q-19 5 -44 13z" />
<glyph unicode="&#xe19;" horiz-adv-x="819" d="M43 217q0 16 1 29.5t3 23.5l98 549h123l-94 -534q-2 -12 -3 -21.5t-1 -15.5q0 -68 46 -108t126 -40q88 0 178 54q88 53 103 129l96 536h123l-146 -819h-123l15 84q-59 -45 -127 -69.5t-144 -24.5q-125 0 -199.5 58t-74.5 169z" />
<glyph unicode="&#xe1a;" horiz-adv-x="819" d="M43 223q0 8 1 18.5t3 24.5l98 553h123l-98 -553q-2 -4 -2 -24q0 -66 56.5 -104t142.5 -38q45 0 88 12.5t77.5 34t58 52t30.5 67.5l98 553h123l-99 -553q-20 -123 -137 -200q-119 -76 -260 -76q-66 0 -121 16.5t-95 47t-63.5 73.5t-23.5 96z" />
<glyph unicode="&#xe1b;" horiz-adv-x="819" d="M43 223q0 8 1 18.5t3 24.5l98 553h123l-98 -553q-2 -4 -2 -24q0 -66 56.5 -104t142.5 -38q45 0 88 12.5t77.5 34t58 52t30.5 67.5l143 819h123l-144 -819q-20 -123 -137 -200q-119 -76 -260 -76q-66 0 -121 16.5t-95 47t-63.5 73.5t-23.5 96z" />
<glyph unicode="&#xe1c;" horiz-adv-x="1058" d="M84 819h270l-20 -114h-115l41 -459l299 573h109l94 -573l256 573h125l-365 -819h-98l-102 618l-324 -618h-96z" />
<glyph unicode="&#xe1d;" horiz-adv-x="1058" d="M84 819h270l-20 -114h-115l41 -459l299 573h109l94 -573l375 839h125l-484 -1085h-98l-102 618l-324 -618h-96z" />
<glyph unicode="&#xe1e;" horiz-adv-x="1058" d="M84 819h125l51 -573l299 573h109l94 -573l256 573h125l-365 -819h-98l-105 618l-321 -618h-96z" />
<glyph unicode="&#xe1f;" horiz-adv-x="1058" d="M84 819h125l53 -573l297 573h109l96 -573l373 839h125l-482 -1085h-98l-104 618l-322 -618h-96z" />
<glyph unicode="&#xe20;" horiz-adv-x="839" d="M-57 0l20 115h78l94 540q156 178 381 179q135 0 219 -59.5t84 -170.5v-22q-2 -10 -3 -16.5t-1 -8.5l-98 -557h-123l96 541q2 6 2 32q0 70 -54 108t-142 38q-147 0 -242 -94l-111 -625h-200z" />
<glyph unicode="&#xe21;" horiz-adv-x="819" d="M0 0l145 819h123l-96 -536q-12 -78 57 -129q72 -53 162 -54q92 0 154.5 49.5t79.5 135.5l94 534h123l-99 -549q-25 -133 -125 -206.5t-243 -73.5q-74 0 -135.5 24.5t-102.5 69.5l-14 -84h-123z" />
<glyph unicode="&#xe22;" horiz-adv-x="817" d="M12 219q0 8 1 19.5t3 25.5q12 76 70 133q53 57 113 78q-43 14 -73 51t-30 84q0 16 2 21q14 82 101 141q82 57 194 57q74 0 129 -22l-18 -113l-70 15q-29 6 -57 6q-55 0 -99.5 -21.5t-52.5 -62.5q-8 -45 38 -67.5t108 -22.5h106l-20 -115h-88q-74 0 -143.5 -45t-82.5 -115 q-2 -4 -2 -24q0 -63 60.5 -101.5t167.5 -38.5q86 0 151 27q29 10 82 41l115 649h123l-123 -696q-14 -14 -27.5 -23.5t-23.5 -17.5q-139 -90 -318 -90q-166 0 -251 61.5t-85 165.5z" />
<glyph unicode="&#xe23;" horiz-adv-x="772" d="M14 229q0 29 6 60h123q-2 -14 -3 -24.5t-1 -14.5q0 -78 57.5 -115t145.5 -37q45 0 88 10.5t78 31t58.5 48t29.5 62.5q8 63 -55 94q-25 10 -68 19.5t-102 13.5q-119 12 -187 43q-96 41 -96 127q0 27 2 33q18 104 127 176q111 74 244 73q137 0 223 -62t86 -173h-129 q-10 57 -61.5 89t-137.5 32q-76 0 -145 -37q-68 -35 -78 -84q-4 -27 12.5 -46.5t46 -31.5t70.5 -18t88 -6q59 0 111.5 -11.5t91.5 -35t61.5 -59.5t22.5 -85q0 -6 -1 -16.5t-3 -24.5q-20 -127 -141 -205q-109 -68 -259 -67q-131 0 -213 55q-92 67 -92 186z" />
<glyph unicode="&#xe24;" horiz-adv-x="819" d="M0 0l115 655q156 178 381 179q135 0 219 -59.5t84 -170.5v-22q-2 -10 -3 -16.5t-1 -8.5l-152 -860h-123l150 844q2 6 2 32q0 70 -54.5 108t-142.5 38q-147 0 -242 -94l-90 -510h123l-20 -115h-246z" />
<glyph unicode="&#xe25;" horiz-adv-x="837" d="M10 207v22q2 10 3 16.5t1 8.5q23 133 133 221q119 100 293 100q158 0 238 -86l22 121q-12 45 -66 77t-126 32q-86 0 -154.5 -33t-111.5 -92h-131q59 117 169.5 178.5t245.5 61.5q131 0 210 -59.5t89 -141.5l-110 -633h-123l57 330q-18 55 -80.5 93t-148.5 38 q-113 0 -189.5 -59.5t-93.5 -147.5q-2 -4 -2 -29q0 -53 32 -87t87 -34q31 0 59.5 7.5t69.5 29.5l57 -88q-45 -33 -92 -46t-115 -13q-104 0 -163.5 60.5t-59.5 152.5z" />
<glyph unicode="&#xe26;" horiz-adv-x="839" d="M-57 0l20 115h78l94 540q156 178 381 179q135 0 219 -59.5t84 -170.5v-22q-2 -10 -3 -16.5t-1 -8.5l-151 -860h-123l149 844q2 6 2 32q0 70 -54 108t-142 38q-147 0 -242 -94l-111 -625h-200z" />
<glyph unicode="&#xe27;" horiz-adv-x="776" d="M14 254h125q16 -74 68.5 -114t126.5 -40q119 0 203 97q74 80 96 213q2 18 5 36.5t3 42.5q0 100 -49 165t-150 65q-70 0 -137 -41t-106 -113h-129q57 125 165.5 197t227.5 72q147 0 225 -90.5t78 -233.5q0 -23 -3 -47.5t-7 -52.5q-31 -176 -146 -297q-123 -123 -297 -123 q-117 0 -201 69.5t-98 194.5z" />
<glyph unicode="&#xe28;" horiz-adv-x="819" d="M0 0l96 549q20 119 140 196q119 80 258 80q88 0 143 -26l96 92l86 -68l-86 -82q63 -63 64 -151q0 -6 -1 -16.5t-3 -24.5l-97 -549h-123l97 549q2 4 2 24q0 63 -56.5 101.5t-142.5 38.5q-45 0 -88 -11.5t-78 -33t-58.5 -52t-29.5 -67.5l-14 -80h258l-19 -115h-258 l-63 -354h-123z" />
<glyph unicode="&#xe29;" horiz-adv-x="829" d="M43 225q0 6 1 16.5t3 24.5l98 553h123l-98 -553q-2 -4 -2 -24q0 -66 56.5 -104t142.5 -38q45 0 88 12.5t77.5 34t58 52t30.5 67.5l18 109h-238l29 155l53 -41h176l60 330h123l-60 -330h82l-20 -114h-82l-19 -109q-23 -123 -139 -200q-119 -76 -258 -76q-127 0 -215 63 t-88 172z" />
<glyph unicode="&#xe2a;" horiz-adv-x="837" d="M10 207v22q2 10 3 16.5t1 8.5q23 133 133 221q119 100 293 100q158 0 238 -86l22 121q-12 45 -66 77t-126 32q-86 0 -154.5 -33t-111.5 -92h-131q59 117 169.5 178.5t245.5 61.5q82 0 152 -29l94 86l88 -68l-88 -82q47 -53 53 -108l-110 -633h-123l57 330 q-18 55 -80.5 93t-148.5 38q-113 0 -189.5 -59.5t-93.5 -147.5q-2 -4 -2 -29q0 -53 32 -87t87 -34q31 0 59.5 7.5t69.5 29.5l57 -88q-45 -33 -92 -46t-115 -13q-104 0 -163.5 60.5t-59.5 152.5z" />
<glyph unicode="&#xe2b;" horiz-adv-x="829" d="M0 0l145 819h123l-49 -272l471 282l131 -36l-209 -129q88 -16 136.5 -67.5t48.5 -127.5q0 -8 -1 -17.5t-3 -21.5l-76 -430h-123l72 410q2 4 2 28q0 66 -52.5 108t-134.5 42l-284 -176l-74 -412h-123z" />
<glyph unicode="&#xe2c;" horiz-adv-x="1058" d="M84 819h125l53 -573l297 573h109l96 -573l135 305q18 43 19 80q0 82 -99 82h-69l18 106h113q74 0 113.5 17.5t62.5 68.5l53 119h125l-76 -168q-20 -47 -58 -77.5t-85 -45.5q37 -35 37 -88q0 -37 -15 -63l-258 -582h-98l-104 618l-322 -618h-96z" />
<glyph unicode="&#xe2d;" horiz-adv-x="892" d="M33 324v51q12 43 15 70.5t20 60.5h321l-20 -115h-207q-2 -16 -3 -27.5t-1 -19.5q0 -111 64.5 -177.5t180.5 -66.5q129 0 226 86q98 86 121 224q6 33 6 67q0 111 -63.5 176.5t-180.5 65.5q-174 0 -287 -156h-133q162 270 440 271q162 0 255.5 -91.5t93.5 -244.5v-54 q-4 -12 -5.5 -21t-3.5 -13q-33 -186 -167 -306q-137 -115 -322 -114q-166 0 -258 89t-92 245z" />
<glyph unicode="&#xe2e;" horiz-adv-x="892" d="M33 324v51q12 43 15 70.5t20 60.5h321l-20 -115h-207q-2 -16 -3 -27.5t-1 -19.5q0 -111 64.5 -177.5t180.5 -66.5q129 0 226 86q98 86 121 224q6 33 6 67q0 111 -63.5 176.5t-180.5 65.5q-174 0 -287 -156h-133q162 270 440 271q106 0 177 -39l102 96l82 -64l-98 -94 q86 -86 86 -235v-54q-4 -12 -5.5 -21t-3.5 -13q-33 -186 -167 -306q-137 -115 -322 -114q-166 0 -258 89t-92 245z" />
<glyph unicode="&#xe2f;" horiz-adv-x="792" d="M76 643q-6 29 17.5 81t84.5 95h160q-18 -6 -38.5 -21.5t-39 -35t-32 -41t-15.5 -39.5q-8 -45 25.5 -71.5t97.5 -26.5q125 0 221 49q33 16 59.5 36.5t47.5 45.5l18 104h123l-146 -819h-122l100 569q-76 -47 -157 -70.5t-158 -23.5q-123 0 -184.5 46t-61.5 122z" />
<glyph unicode="&#xe30;" horiz-adv-x="307" d="M-8 102l20 136h123l-10 -58h133l-14 -78h-252zM74 582l22 135h123l-10 -58h133l-12 -77h-256z" />
<glyph unicode="&#xe31;" d="M-254 922l33 184h123l-15 -82h426l-18 -102h-549z" />
<glyph unicode="&#xe32;" horiz-adv-x="579" d="M63 662l25 129q37 20 86 31.5t113 11.5q135 0 202.5 -63.5t67.5 -168.5q0 -33 -6 -63l-96 -539h-123l90 506q6 27 6 53q0 72 -41 116t-127 44q-51 0 -102.5 -16t-94.5 -41z" />
<glyph unicode="&#xe33;" horiz-adv-x="579" d="M-117 1008q0 14 6 39q2 12 14.5 27.5t30 28.5t39 22.5t43.5 9.5q49 0 78 -31t21 -76q-10 -45 -48 -75.5t-85 -30.5q-41 0 -70 24.5t-29 61.5zM-45 1028q-4 -18 7 -30.5t32 -12.5q41 0 51 43q2 18 -10 30.5t-31 12.5q-14 0 -30.5 -12.5t-18.5 -30.5zM63 662l25 129 q37 20 86 31.5t113 11.5q135 0 202.5 -63.5t67.5 -168.5q0 -33 -6 -63l-96 -539h-123l90 506q6 27 6 53q0 72 -41 116t-127 44q-51 0 -102.5 -16t-94.5 -41z" />
<glyph unicode="&#xe34;" d="M-592 922l19 102h630l-18 -102h-631z" />
<glyph unicode="&#xe35;" d="M-592 922l19 102h512l18 102h119l-37 -204h-631z" />
<glyph unicode="&#xe36;" d="M-592 922l19 102h456q10 49 48 80t85 31q49 0 78 -31t21 -76q-10 -45 -48 -75.5t-85 -30.5h-574zM-45 1028q-4 -18 7 -30.5t32 -12.5q41 0 51 43q2 18 -10 30.5t-31 12.5q-14 0 -30.5 -12.5t-18.5 -30.5z" />
<glyph unicode="&#xe37;" d="M-592 922l19 102h348l18 102h103l-19 -102h62l18 102h119l-37 -204h-631z" />
<glyph unicode="&#xe38;" d="M-356 -180l18 102h205l-43 -246h-123l25 144h-82z" />
<glyph unicode="&#xe39;" d="M-559 -174l16 96h185l-25 -143l12 -6q14 -6 33 -6q55 0 62 38l20 117h123l-23 -123q-8 -55 -66.5 -89t-131.5 -34q-51 0 -91 15.5t-67 52.5l14 82h-61z" />
<glyph unicode="&#xe3a;" d="M-289 -160q6 33 31 58.5t63 23.5q35 0 54.5 -23.5t13.5 -58.5t-33.5 -58.5t-62.5 -23.5q-41 -4 -56.5 22.5t-9.5 59.5z" />
<glyph unicode="&#xe3f;" horiz-adv-x="722" d="M18 0l191 1081h127l84 -4l26 156h70l-29 -166q92 -18 139.5 -67.5t47.5 -147.5q0 -31 -8.5 -79t-47.5 -107q-37 -57 -75 -76l-4 -19q63 -12 103 -74.5t40 -144.5v-24q-2 -10 -3 -16.5t-1 -8.5q-25 -143 -137 -225q-100 -76 -242 -76l-29 -158h-69l28 156h-211zM170 121 h98q104 0 176 37q86 47 107 153q2 12 3 21.5t1 15.5q0 82 -78 119q-68 29 -162 29h-77zM256 602h31q111 0 166 31q74 41 92 149q2 10 3 21.5t1 25.5q0 76 -51.5 104t-143.5 28h-35z" />
<glyph unicode="&#xe40;" horiz-adv-x="286" d="M20 0l146 819h123l-146 -819h-123z" />
<glyph unicode="&#xe41;" horiz-adv-x="512" d="M20 0l146 819h123l-146 -819h-123zM246 0l145 819h123l-145 -819h-123z" />
<glyph unicode="&#xe42;" horiz-adv-x="307" d="M41 0l160 903q2 4 2 25q0 49 -60 104q-59 57 -49 105q10 63 64.5 98t132.5 35h282l-20 -117h-291q-37 0 -39 -18.5t51 -63.5q55 -47 56 -113q0 -6 -1 -16t-3 -24l-162 -918h-123z" />
<glyph unicode="&#xe43;" horiz-adv-x="307" d="M4 1061q8 49 33.5 89t61.5 69.5t81 45t92 15.5q86 0 139.5 -43t53.5 -111q0 -20 -2 -24q-10 -49 -47 -84q-86 -86 -94 -123l-158 -895h-123l162 915q12 61 71.5 108.5t65.5 74.5q4 31 -19.5 51t-66.5 20q-45 0 -81 -27.5t-46 -80.5h-123z" />
<glyph unicode="&#xe44;" horiz-adv-x="307" d="M20 1184l93 86l100 -105l137 95l115 -166q-53 -37 -95 -97.5t-55 -134.5l-151 -862h-123l149 842q12 80 56 141q14 20 35.5 43t50.5 45l-29 37l-117 -86z" />
<glyph unicode="&#xe45;" horiz-adv-x="579" d="M66 662l22 129q39 20 88 31.5t113 11.5q135 0 202.5 -66t67.5 -170q0 -29 -6 -59l-150 -842h-122l143 809q2 18 3 31.5t1 21.5q0 74 -40 117t-126 43q-53 0 -103 -16t-93 -41z" />
<glyph unicode="&#xe46;" horiz-adv-x="817" d="M45 434l27 144q20 117 102 184t207 67l82 -81l110 81q106 0 167 -52t61 -146q0 -16 -1 -29.5t-3 -23.5l-156 -881h-123l156 881q2 6 2 32q0 84 -74 107l-164 -121l-123 121q-47 -12 -79.5 -47t-40.5 -92l-7 -27h168l-20 -117h-291z" />
<glyph unicode="&#xe47;" d="M-573 922l14 79q16 88 83.5 138.5t180.5 50.5h379l-14 -82h-373q-53 0 -88 -23.5t-39 -54.5l-2 -6h88l121 57l98 -57h119l-19 -102h-125l-92 59l-112 -59h-219z" />
<glyph unicode="&#xe48;" d="M-33 1188l33 184h119l-33 -184h-119z" />
<glyph unicode="&#xe49;" d="M-139 1305l14 77h80q90 0 76 -75l-2 -23h245l-18 -96h-358l14 76q6 41 -35 41h-16z" />
<glyph unicode="&#xe4a;" d="M-176 1188l16 94q10 55 48 84t94 29h34l62 -56l80 56h35q100 0 100 -80q0 -18 -2 -23l-2 -16h117l-17 -88h-221l18 100q2 31 -16 31l-109 -72l-77 72q-35 0 -37 -33l-4 -18h57l-12 -80h-164z" />
<glyph unicode="&#xe4b;" d="M-104 1264l14 86h90l12 75h111l-14 -75h92l-15 -86h-92l-14 -76h-107l15 76h-92z" />
<glyph unicode="&#xe4c;" d="M-119 1106l6 35q10 57 52.5 84.5t97.5 27.5h100l-14 -77h-55q-59 0 -68 -50l-2 -20h-117z" />
<glyph unicode="&#xe4d;" d="M-117 1008q0 14 6 39q2 12 14.5 27.5t30 28.5t39 22.5t43.5 9.5q49 0 78 -31t21 -76q-10 -45 -48 -75.5t-85 -30.5q-41 0 -70 24.5t-29 61.5zM-45 1028q-4 -18 7 -30.5t32 -12.5q41 0 51 43q2 18 -10 30.5t-31 12.5q-14 0 -30.5 -12.5t-18.5 -30.5z" />
<glyph unicode="&#xe4e;" d="M-410 1135q4 33 24.5 60.5t48.5 47t57.5 30.5t54.5 15q-18 18 -19 49q0 12 4 35t50 66q31 33 73.5 51t92 28.5t102.5 14.5t102 4h27h4l-18 -106q-43 0 -95.5 -2.5t-113.5 -16.5q-96 -23 -99 -55q-6 -23 20.5 -31t67.5 -8h21h4l-16 -94h-13h-16q-10 0 -16 2q-43 0 -69 -3 t-65 -16q-41 -10 -65.5 -28.5t-22.5 -38.5q0 -16 37 -17q27 0 65 10.5t66 28.5l37 -90q-18 -8 -34 -14l-25 -10q-72 -27 -131 -27q-6 2 -25 2q-59 8 -90 40t-25 73z" />
<glyph unicode="&#xe4f;" horiz-adv-x="962" d="M66 336q0 37 6 74q31 178 174 297q143 123 319 122q154 0 252 -98q100 -94 101 -248q0 -37 -7 -73q-31 -178 -174 -297t-319 -119q-154 0 -254 94q-98 94 -98 248zM127 348q0 -123 84 -213q90 -84 217 -84q150 0 272.5 104.5t149.5 254.5q6 31 6 61q0 127 -86 211 q-84 86 -215 86q-150 0 -272.5 -104.5t-149.5 -253.5q-6 -31 -6 -62zM231 367q0 8 1 18t4 25q18 104 106 180t195 76q94 0 154.5 -60.5t60.5 -152.5q0 -8 -1 -18.5t-3 -24.5q-18 -102 -109 -181q-88 -76 -193 -75q-94 0 -154.5 60.5t-60.5 152.5z" />
<glyph unicode="&#xe50;" horiz-adv-x="761" d="M18 258v25q2 10 3.5 16t1.5 8q25 131 143.5 225.5t263.5 94.5q131 0 213 -76q84 -78 84 -191q0 -16 -1 -29.5t-3 -23.5q-23 -131 -141 -225q-121 -90 -265 -90q-66 0 -120 19.5t-94 54t-62.5 84t-22.5 108.5zM137 272q0 -76 54.5 -126t142.5 -50q96 0 174 62 q80 61 94 149q2 6 2 35q0 76 -54 126t-140 50q-96 0 -177 -61q-80 -63 -94 -150q-2 -6 -2 -35z" />
<glyph unicode="&#xe51;" horiz-adv-x="811" d="M23 283q0 6 1 17t3 28q20 131 147 215t272 84q74 0 134.5 -18.5t104.5 -52.5t68.5 -82t24.5 -107q0 -18 -1 -31.5t-3 -24.5q-29 -156 -186 -268q-145 -98 -320 -123l-41 100q158 16 281 97q123 82 143 194q2 6 2 35q0 78 -62.5 125t-160.5 47q-100 0 -182 -55 q-84 -53 -98 -135q-2 -4 -3 -25q0 -88 84 -117q-14 20 -14 64q0 23 2 26q12 61 66.5 105.5t124.5 44.5q61 0 100 -37t39 -90q0 -18 -2 -23q-14 -86 -104.5 -145t-196.5 -59q-104 0 -163.5 58.5t-59.5 152.5zM319 276q-10 -55 54 -55q63 0 73 55q8 55 -53 56 q-27 0 -49.5 -16.5t-24.5 -39.5z" />
<glyph unicode="&#xe52;" horiz-adv-x="1148" d="M-80 803l105 74q70 -74 116.5 -167.5t63.5 -191.5q10 -55 12 -98t2 -115v-22q0 -37 -1 -74t-1 -74v-22h707l55 319q8 41 -15.5 65.5t-62.5 24.5q-61 0 -110 -55l-52 -291h-123l54 295q-37 51 -105 51q-49 0 -90 -26.5t-51 -63.5l25 2q53 0 89.5 -32.5t36.5 -82.5 q0 -18 -2 -20q-10 -55 -60 -94t-112 -39q-55 0 -90 30.5t-35 79.5q0 18 3 23l20 117q14 92 100 155q82 63 187 64q51 0 93 -16.5t71 -43.5q78 59 172 60q80 0 132 -43t52 -117q0 -29 -2 -33l-78 -442h-942q8 70 11 134.5t3 125.5q0 45 -1 70.5t-3 47t-6 46.5t-10 70 q-25 164 -158 309zM370.5 299q-8.5 -51 45.5 -51q57 0 65 51q2 20 -11 35.5t-36 15.5q-55 0 -63.5 -51z" />
<glyph unicode="&#xe53;" horiz-adv-x="964" d="M23 115q0 18 2 22l49 281q16 90 106 153q88 63 191 64q59 0 101 -15.5t73 -44.5q35 23 86 41.5t96 18.5q80 0 137.5 -44t57.5 -116q0 -27 -2 -31l-78 -444h-123l76 434q6 41 -20.5 64.5t-67.5 23.5q-31 0 -63 -13t-58 -40l-82 -469h-123l84 473q-16 25 -48 37t-67 12 q-51 0 -98 -29.5t-55 -74.5l-25 -137l43 6q61 0 100 -37t39 -90q0 -18 -2 -23q-10 -61 -65.5 -102t-124.5 -41q-61 0 -100 33t-39 88zM125 137q-10 -55 53 -55t74 55q8 55 -53 56q-27 0 -49.5 -16.5t-24.5 -39.5z" />
<glyph unicode="&#xe54;" horiz-adv-x="872" d="M16 231q0 18 1 33t3 25q23 141 146 231q125 94 274 94h283q53 0 86 76q8 20 18.5 58t20.5 96h123q-23 -145 -84 -236q-74 -106 -185 -106h-282q-98 0 -182 -60q-80 -59 -95 -153q-2 -4 -2 -31q0 -78 55.5 -120t135.5 -42q49 0 55 2q27 6 45.5 9.5l28.5 5.5 q-49 51 -49 118q0 20 2 25q6 33 24.5 61.5t44 50t58 34t67.5 12.5q61 0 100.5 -37t39.5 -90q0 -20 -3 -25q-8 -39 -33.5 -71.5t-62.5 -55.5l29 -2q49 -10 78 -18q53 -23 78 -52l-89 -83q-31 20 -76.5 31.5t-86.5 11.5q-10 0 -50 -7l-104 -16q-35 -2 -65.5 -5t-57.5 -3 q-127 0 -203 55q-86 63 -86 184zM518 262q-10 -55 53 -55t74 55q2 23 -12.5 39t-42.5 16q-27 0 -48.5 -16t-23.5 -39z" />
<glyph unicode="&#xe55;" horiz-adv-x="872" d="M16 231q0 18 1 33t3 25q8 57 35 107t69 90t95 70t115 44q-12 25 -12 53q0 16 2 19q12 63 70.5 108t127.5 45q63 0 105.5 -35.5t42.5 -93.5q0 -20 -2 -24q-2 -18 -9.5 -31.5t-17.5 -26.5h82q51 0 84 76q10 23 20.5 62t20.5 92h123q-25 -145 -86 -236q-70 -106 -183 -106 h-282q-98 0 -182 -60q-80 -59 -95 -153q-2 -4 -2 -31q0 -78 55.5 -120t135.5 -42q49 0 55 2q27 6 45.5 9.5l28.5 5.5q-49 51 -49 118q0 20 2 25q6 33 24.5 61.5t44 50t58 34t67.5 12.5q61 0 100.5 -37t39.5 -90q0 -20 -3 -25q-8 -39 -33.5 -71.5t-62.5 -55.5l29 -2 q49 -10 78 -18q53 -23 78 -52l-89 -83q-31 20 -76.5 31.5t-86.5 11.5q-10 0 -50 -7l-104 -16q-35 -2 -65.5 -5t-57.5 -3q-127 0 -203 55q-86 63 -86 184zM436 670.5q-4 -21.5 7.5 -39t41.5 -17.5q63 0 72 58q4 23 -10.5 40t-40.5 17q-31 0 -48.5 -18.5t-21.5 -40zM518 262 q-10 -55 53 -55t74 55q2 23 -12.5 39t-42.5 16q-27 0 -48.5 -16t-23.5 -39z" />
<glyph unicode="&#xe56;" horiz-adv-x="819" d="M-31 774l101 70q74 -66 108.5 -132.5t42.5 -138.5q113 61 250 62q141 0 228 -71.5t87 -194.5q0 -16 -1 -29.5t-3 -24.5q-25 -143 -151 -235q-127 -90 -291 -90q-137 0 -220 62.5t-83 156.5q0 25 2 29q12 66 67.5 108.5t124.5 42.5q59 0 100.5 -37t41.5 -90q0 -18 -2 -22 q-8 -39 -35 -73t-64 -54q29 -14 86 -15q106 0 197 60q88 61 104 157l3.5 20.5t1.5 12.5q0 76 -60.5 124t-152.5 48q-63 0 -127 -22.5t-134 -75.5l-94 24q0 53 -7 96.5t-22.5 81.5t-40 73.5t-57.5 76.5zM143 240q-4 -25 10.5 -41.5t43.5 -16.5t49 16.5t24 41.5q8 57 -53 57 q-66 0 -74 -57z" />
<glyph unicode="&#xe57;" horiz-adv-x="1198" d="M23 115q0 20 2 24l49 277q16 92 106 155q88 63 191 64q59 0 101 -15.5t73 -44.5q35 23 86 41.5t96 18.5q80 0 137.5 -45t57.5 -117q0 -27 -2 -31l-60 -336q51 0 92 35q29 29 35 62l74 413q14 76 67 142q41 47 101 86l86 -70q-49 -27 -87 -71t-46 -95l-70 -399 q-18 -104 -123.5 -158.5t-271.5 -54.5l78 436q8 43 -18.5 66.5t-69.5 23.5q-72 0 -121 -55l-82 -467h-123l84 471q-39 51 -115 51q-51 0 -98 -30.5t-55 -75.5l-23 -131l41 4q61 0 100 -37t39 -90q0 -18 -2 -23q-10 -63 -65.5 -104t-124.5 -41q-61 0 -100 33t-39 88zM125 139 q-10 -55 53 -55t74 55q8 55 -53 56q-66 -1 -74 -56z" />
<glyph unicode="&#xe58;" horiz-adv-x="899" d="M16 233q0 27 7 58q27 154 165 244q137 92 324 92q127 0 221 -23q31 41 62.5 105.5t52.5 134.5l115 -19q-33 -111 -82.5 -193.5t-118.5 -156.5q-57 20 -116.5 31.5t-131.5 11.5q-143 0 -248 -67q-102 -66 -121 -160q-2 -4 -2 -31q0 -53 29 -93t64 -52l159 129l162 -152 l59 31q-76 27 -75 98q0 16 2 19q10 57 60 98t114 41q55 0 90 -35t35 -86q0 -18 -2 -22q-12 -66 -103 -138q-74 -55 -219 -114l-143 127l-152 -127q-88 20 -143 82q-64 69 -64 167zM637 240q-10 -49 45 -50q55 0 66 50q6 53 -48 53q-23 0 -42 -15t-21 -38z" />
<glyph unicode="&#xe59;" horiz-adv-x="962" d="M18 250q0 33 7 67q25 141 137 230q113 92 260 92q137 0 219 -88q35 41 80 64.5t96 23.5t90 -27q23 51 39.5 107.5t16.5 124.5h124q0 -117 -57 -230q-45 -92 -121 -161l-59 18q0 27 -17.5 40t-35.5 13q-29 0 -51.5 -21.5t-30.5 -51.5q37 -82 51 -191.5t14 -253.5l-127 -12 q0 240 -35 354q-55 176 -217 176q-47 0 -89 -15t-75.5 -43t-57 -67t-32.5 -84q-2 -16 -3 -27.5t-1 -17.5q0 -51 17.5 -89t46.5 -60q-2 4 -2 26q0 18 2 23q10 63 65.5 107.5t124.5 44.5q61 0 100.5 -37t39.5 -90q0 -20 -2 -25q-6 -41 -31 -74t-60.5 -56.5t-78.5 -35.5 t-86 -12q-129 0 -195 70.5t-66 187.5zM309 170q-4 -25 10.5 -41t40.5 -16q27 0 47.5 16t24.5 41q8 57 -51 57q-27 0 -48.5 -16t-23.5 -41z" />
<glyph unicode="&#xe5a;" horiz-adv-x="1007" d="M76 643q-6 29 17.5 81t84.5 95h160q-18 -6 -38.5 -21.5t-39 -35t-32 -41t-15.5 -39.5q-8 -45 25.5 -71.5t97.5 -26.5q125 0 221 49q33 16 59.5 36.5t47.5 45.5l18 104h123l-31 -170q41 20 70.5 43t46.5 43l16 84h123l-145 -819h-123l104 590q-20 -12 -52 -29.5t-60 -28.5 l-95 -532h-122l100 569q-76 -47 -157 -70.5t-158 -23.5q-123 0 -184.5 46t-61.5 122z" />
<glyph unicode="&#xe5b;" horiz-adv-x="1499" d="M66 322v57q4 12 5 21.5t3 15.5q27 152 117 254t200 102q80 0 130 -55t50 -148q0 -27 -6 -57q-16 -88 -64 -144.5t-112 -56.5q-47 0 -73.5 31t-26.5 80q0 25 2 29q10 57 52 98t93 41l27 -4q0 41 -22.5 67.5t-61.5 26.5q-35 0 -66.5 -20.5t-59.5 -57.5t-48.5 -87 t-30.5 -107q-6 -41 -6 -76q0 -86 40 -136.5t109 -50.5q49 0 97.5 27t91.5 76t80 117.5t63 154.5q14 49 30.5 67.5t41.5 18.5q33 0 53.5 -47t20.5 -129q8 18 14 38.5t16 68.5q12 49 49 49q51 0 80 -129q4 16 9.5 31.5t9.5 31.5q12 29 37 29q49 0 77 -109q20 49 25 54 q14 25 39 24q27 0 59 -69q12 23 23.5 33t30.5 5l174 -18q53 -6 49 -35q-4 -25 -60 -33l-178 -18q-8 -23 -24.5 -39t-32.5 -16q-14 0 -25 24l-20 51q-14 -41 -34.5 -70.5t-45.5 -29.5q-20 0 -32 32l-23 66q-16 -55 -37 -84q-25 -37 -53 -36q-25 0 -31 49q-2 27 -6 48t-8 38 q-37 -88 -65 -124t-62 -36q-35 0 -35 53l-10 111q-33 -82 -68 -135.5t-92 -106.5q-55 -53 -125 -86t-131 -33q-104 0 -163.5 70t-59.5 193zM365 453q-8 -57 36 -58q53 0 62 58q8 57 -41 57q-20 0 -36.5 -16t-20.5 -41z" />
<glyph unicode="&#x2000;" horiz-adv-x="798" />
<glyph unicode="&#x2001;" horiz-adv-x="1599" />
<glyph unicode="&#x2002;" horiz-adv-x="798" />
<glyph unicode="&#x2003;" horiz-adv-x="1599" />
<glyph unicode="&#x2004;" horiz-adv-x="532" />
<glyph unicode="&#x2005;" horiz-adv-x="399" />
<glyph unicode="&#x2006;" horiz-adv-x="266" />
<glyph unicode="&#x2007;" horiz-adv-x="266" />
<glyph unicode="&#x2008;" horiz-adv-x="198" />
<glyph unicode="&#x2009;" horiz-adv-x="319" />
<glyph unicode="&#x200a;" horiz-adv-x="88" />
<glyph unicode="&#x2010;" horiz-adv-x="456" d="M66 317l18 103h313l-18 -103h-313z" />
<glyph unicode="&#x2011;" horiz-adv-x="456" d="M66 317l18 103h313l-18 -103h-313z" />
<glyph unicode="&#x2012;" horiz-adv-x="456" d="M66 317l18 103h313l-18 -103h-313z" />
<glyph unicode="&#x2013;" horiz-adv-x="798" d="M55 317l19 103h676l-19 -103h-676z" />
<glyph unicode="&#x2014;" horiz-adv-x="1597" d="M55 317l19 103h1474l-18 -103h-1475z" />
<glyph unicode="&#x2018;" horiz-adv-x="372" d="M168 819q0 20 2 25q12 74 78 145q55 57 131 96l24 -36q-106 -51 -151 -146l47 10q37 0 59.5 -26.5t16.5 -65.5q-8 -37 -42 -66.5t-75 -29.5q-43 0 -66.5 26.5t-23.5 67.5z" />
<glyph unicode="&#x2019;" horiz-adv-x="372" d="M166 762q55 27 91 60.5t62 86.5l-49 -12q-37 0 -59.5 26.5t-15.5 65.5q6 37 39.5 66.5t74.5 29.5q45 0 68.5 -27.5t23.5 -70.5q0 -18 -2 -20q-12 -74 -77 -146q-53 -55 -134 -96z" />
<glyph unicode="&#x201c;" horiz-adv-x="663" d="M168 819q0 20 2 25q12 74 78 145q55 57 131 96l24 -36q-106 -51 -151 -146l47 10q37 0 59.5 -26.5t16.5 -65.5q-8 -37 -42 -66.5t-75 -29.5q-43 0 -66.5 26.5t-23.5 67.5zM459 819q0 20 2 25q12 74 78 145q55 57 131 96l24 -36q-106 -51 -151 -146l47 10q37 0 59.5 -26.5 t16.5 -65.5q-8 -37 -42 -66.5t-75 -29.5q-43 0 -66.5 26.5t-23.5 67.5z" />
<glyph unicode="&#x201d;" horiz-adv-x="663" d="M166 762q55 27 91 60.5t62 86.5l-49 -12q-37 0 -59.5 26.5t-15.5 65.5q6 37 39.5 66.5t74.5 29.5q45 0 68.5 -27.5t23.5 -70.5q0 -18 -2 -20q-12 -74 -77 -146q-53 -55 -134 -96zM457 762q55 27 91 60.5t62 86.5l-49 -12q-37 0 -59.5 26.5t-16.5 65.5q6 37 40 66.5 t75 29.5q45 0 68.5 -27.5t23.5 -70.5q0 -18 -2 -20q-12 -74 -78 -146q-53 -55 -133 -96z" />
<glyph unicode="&#x2022;" horiz-adv-x="737" d="M68 358v25q2 10 3 16.5t1 10.5q20 127 128.5 217t233.5 90q55 0 102.5 -18.5t81 -52.5t53 -80t19.5 -101q0 -18 -1 -31.5t-3 -23.5q-20 -129 -127 -217q-109 -90 -233 -91q-55 0 -103.5 19.5t-82.5 53.5t-53 81t-19 102z" />
<glyph unicode="&#x2026;" horiz-adv-x="978" d="M39 84q6 35 34.5 59.5t63.5 24.5t55.5 -24.5t14.5 -59.5t-35 -59.5t-63 -24.5q-35 0 -55.5 24.5t-14.5 59.5zM358.5 84q6.5 35 35 59.5t63.5 24.5t55 -24.5t14 -59.5t-34.5 -59.5t-63.5 -24.5t-55.5 24.5t-14 59.5zM678 84q6 35 34.5 59.5t63.5 24.5t55.5 -24.5 t14.5 -59.5t-35 -59.5t-63 -24.5q-35 0 -55.5 24.5t-14.5 59.5z" />
<glyph unicode="&#x202f;" horiz-adv-x="319" />
<glyph unicode="&#x205f;" horiz-adv-x="399" />
<glyph unicode="&#xe000;" horiz-adv-x="670" d="M0 670h670v-670h-670v670z" />
<glyph unicode="&#xf700;" horiz-adv-x="792" d="M25 662q104 88 201.5 125.5t215.5 37.5q102 0 176 -37l111 103l90 -68l-110 -102q74 -86 73 -215v-53q-4 -12 -5 -21.5t-3 -13.5q-35 -190 -196 -309q-164 -117 -396 -117l-26 416h-88l18 104h188l27 -412q129 0 227 93q98 94 123 225q6 33 6 63q0 104 -64.5 167 t-174.5 63q-158 0 -307 -125z" />
<glyph unicode="&#xf701;" d="M-756 922l19 102h594l-19 -102h-594z" />
<glyph unicode="&#xf702;" d="M-756 922l19 102h471l18 102h123l-37 -204h-594z" />
<glyph unicode="&#xf703;" d="M-756 922l19 102h415q10 49 48 80t90 31q49 0 77.5 -31t20.5 -76q-10 -45 -48 -75.5t-89 -30.5h-533zM-250 1028q-4 -18 7.5 -30.5t31.5 -12.5q45 0 55 43q2 18 -10 30.5t-31 12.5q-18 0 -34.5 -12.5t-18.5 -30.5z" />
<glyph unicode="&#xf704;" d="M-756 922l19 102h307l18 102h103l-19 -102h62l18 102h123l-37 -204h-594z" />
<glyph unicode="&#xf705;" d="M-305 922l41 225h123l-41 -225h-123z" />
<glyph unicode="&#xf706;" d="M-322 1044l15 82h84q102 0 86 -77l-4 -25h295l-19 -102h-418l15 79q8 43 -35 43h-19z" />
<glyph unicode="&#xf707;" d="M-682 922l20 112q12 66 59.5 100.5t110.5 34.5h48l73 -65l95 65h43q119 0 118 -94q0 -25 -2 -28l-4 -23h240l-19 -102h-364l22 120q6 37 -20 37l-127 -86l-103 86q-37 0 -43 -39l-4 -22h72l-18 -96h-197z" />
<glyph unicode="&#xf708;" d="M-451 1008l17 94h102l15 86h122l-14 -86h103l-17 -94h-102l-17 -86h-123l17 86h-103z" />
<glyph unicode="&#xf709;" d="M-385 922l8 36q10 59 54 89t106 30h106l-14 -82h-59q-66 0 -74 -51l-4 -22h-123z" />
<glyph unicode="&#xf70a;" d="M-80 922l41 225h119l-41 -225h-119z" />
<glyph unicode="&#xf70b;" d="M-268 1044l14 82h84q102 0 86 -77l-4 -25h254l-19 -102h-376l14 79q8 43 -35 43h-18z" />
<glyph unicode="&#xf70c;" d="M-590 922l21 112q12 66 59 100.5t111 34.5h47l73 -65l95 65h43q119 0 118 -94q0 -25 -2 -28l-4 -23h138l-19 -102h-262l22 120q6 37 -20 37l-127 -86l-102 86q-37 0 -43 -39l-4 -22h71l-18 -96h-197z" />
<glyph unicode="&#xf70d;" d="M-166 1008l16 94h103l14 86h119l-14 -86h102l-16 -94h-103l-16 -86h-119l17 86h-103z" />
<glyph unicode="&#xf70e;" d="M-162 922l8 36q10 59 54.5 89t101.5 30h107l-15 -82h-59q-61 0 -70 -51l-4 -22h-123z" />
<glyph unicode="&#xf70f;" horiz-adv-x="1351" d="M0 0l115 655q156 178 381 179q135 0 219 -59.5t84 -170.5v-22q-2 -10 -3 -16.5t-1 -8.5l-54 -301q-2 -4 -2 -29q0 -59 50.5 -93t130.5 -34q88 0 152.5 40t78.5 116l100 563h123l-100 -563q-20 -125 -127 -197q-106 -70 -248 -69q-125 0 -205 58t-80 163q0 6 1 17.5 t3 27.5l50 283q2 12 3 21t1 13q0 70 -54.5 108t-142.5 38q-150 0 -242 -96l-90 -510h123l-20 -113h-246z" />
<glyph unicode="&#xf710;" d="M-375 922l33 184h123l-14 -82h426l-19 -102h-549z" />
<glyph unicode="&#xf711;" d="M-322 1008q0 14 7 39q4 27 43 57.5t88 30.5t77.5 -31t20.5 -76q-10 -45 -48 -75.5t-89 -30.5q-41 0 -70 24.5t-29 61.5zM-250 1028q-4 -18 7.5 -30.5t31.5 -12.5q45 0 55 43q2 18 -10 30.5t-31 12.5q-18 0 -34.5 -12.5t-18.5 -30.5z" />
<glyph unicode="&#xf712;" d="M-690 922l14 79q16 88 84 138.5t180 50.5h383l-14 -82h-377q-53 0 -88 -23.5t-39 -54.5l-2 -6h88l121 57l98 -57h119l-18 -102h-125l-92 59l-113 -59h-219z" />
<glyph unicode="&#xf713;" d="M-238 1188l33 184h123l-33 -184h-123z" />
<glyph unicode="&#xf714;" d="M-274 1305l14 77h80q94 0 80 -75l-2 -23h241l-18 -96h-359l15 76q6 41 -35 41h-16z" />
<glyph unicode="&#xf715;" d="M-295 1188l16 94q10 55 48 84t94 29h39l61 -56l76 56h35q100 0 100 -80q0 -18 -2 -23l-2 -16h117l-17 -88h-221l19 100q2 31 -17 31l-104 -72l-82 72q-35 0 -37 -33l-4 -18h59l-14 -80h-164z" />
<glyph unicode="&#xf716;" d="M-309 1264l14 86h92l15 75h110l-14 -75h92l-14 -86h-92l-15 -76h-110l14 76h-92z" />
<glyph unicode="&#xf717;" d="M-303 1106l6 35q10 57 52 84.5t102 27.5h100l-14 -77h-56q-61 0 -69 -50l-4 -20h-117z" />
<glyph unicode="&#xf718;" d="M-410 -487l19 102h205l-45 -246h-123l26 144h-82z" />
<glyph unicode="&#xf719;" d="M-614 -481l18 96h184l-26 -143l12 -7q14 -6 33 -6q55 0 61 39l23 117h123l-23 -123q-10 -55 -68.5 -89t-132.5 -34q-51 0 -91 15.5t-66 52.5l14 82h-61z" />
<glyph unicode="&#xf71a;" d="M-367 -467q6 33 35 57.5t64 24.5t53 -22.5t12 -59.5q-4 -33 -32.5 -57.5t-63.5 -24.5t-53.5 22.5t-14.5 59.5z" />
<glyph unicode="&#xf71b;" d="M-479 -4v1212h479v-1212h-479z" />
<glyph unicode="&#xf71c;" horiz-adv-x="573" />
<glyph unicode="&#xf71d;" horiz-adv-x="573" d="M61 0h451v-193h-35v68q-33 27 -86 27h-221q-39 0 -74 -23v-72h-35v193z" />
</font>
</defs>
</svg>
